<?xml version="1.0" encoding="utf-8"?>
<!DOCTYPE svg PUBLIC "-//W3C//DTD SVG 1.0//EN" "http://www.w3.org/TR/2001/REC-SVG-20010904/DTD/svg10.dtd">
<svg version="1.0" xmlns="http://www.w3.org/2000/svg" width="1080px" height="1080px" viewBox="0 0 1080 1080" preserveAspectRatio="xMidYMid meet">
 <g fill="#ffffff">
  <path d="M0 540 l0 -540 540 0 540 0 0 540 0 540 -540 0 -540 0 0 -540z m429.20 144.75 c2.75 -1.30 5.30 -3.75 6.70 -6.45 l1.35 -2.55 0 -26.50 0 -26.50 -1.20 -2.45 c-1.45 -2.90 -3.70 -5.25 -6.35 -6.60 -1.90 -0.90 -3.60 -0.95 -62.70 -0.95 l-60.75 0 -2.60 1.75 c-1.40 0.95 -3.35 2.90 -4.25 4.25 l-1.65 2.50 -0.15 26.65 c-0.10 16.80 0.05 27.30 0.35 28.50 0.80 2.80 3.35 5.95 6.25 7.60 l2.55 1.50 60.40 0 c52.95 0 60.65 -0.10 62.05 -0.75z m346.40 -0.60 c2.80 -1.55 5.65 -4.85 6.45 -7.60 0.35 -1.20 0.45 -10.85 0.35 -28.55 l-0.15 -26.75 -1.70 -2.55 c-1.10 -1.70 -2.70 -3.15 -4.50 -4.25 l-2.75 -1.70 -60.80 0 -60.75 0 -2.55 1.65 c-2.95 1.85 -4.95 4.50 -6 7.90 -0.95 3.15 -1.05 50.15 -0.10 53.40 1.15 4 3.60 6.90 7.65 9 1.35 0.70 8.15 0.80 61.95 0.80 l60.40 0 2.50 -1.35z m-556 -126.80 c2.45 -1.25 5.15 -3.95 6.55 -6.50 1.10 -2.05 1.10 -2.45 1.25 -22.50 0.15 -20.35 0.15 -20.40 -1 -22.65 -1.30 -2.60 -4.25 -5.50 -6.70 -6.50 -1.40 -0.60 -8.50 -0.70 -41.80 -0.70 l-40.15 0 -2.55 1.45 c-2.70 1.60 -4.80 3.95 -6 6.90 -0.70 1.60 -0.75 4.55 -0.60 20.75 0.10 10.90 -0.05 18.95 -0.30 19.05 -0.75 0.25 0.15 3.50 1.60 5.55 1.75 2.50 4.45 4.70 6.90 5.55 1.60 0.60 8.80 0.70 41.45 0.60 37.15 -0.10 39.60 -0.15 41.35 -1z m122 0.65 c2.80 -0.80 6.70 -4.15 8.15 -7 1 -2 1.10 -2.50 0.50 -2.50 -0.55 0 -0.75 -0.50 -0.75 -1.75 0 -1.15 0.25 -1.75 0.70 -1.75 1.10 0 1.30 -3.50 1.30 -20.65 0 -15.10 -0.05 -16.15 -1 -18.15 -1.30 -2.65 -4 -5.40 -6.50 -6.70 -1.90 -0.95 -3.05 -1 -42.30 -1 l-40.30 0 -2.15 1.20 c-2.50 1.50 -5.10 4.30 -6.05 6.60 -0.55 1.30 -0.70 5.70 -0.70 20.70 0 13.25 -0.15 19 -0.55 19 -0.70 0 -0.15 2.65 1.10 5.05 1.25 2.50 5.55 6.25 7.80 6.85 2.65 0.70 78.25 0.75 80.75 0.10z m126.35 -1.20 c2.85 -1.85 4.35 -3.50 5.95 -6.55 l1.30 -2.50 0 -20 0.05 -20 -1.35 -2.25 c-0.70 -1.25 -2.05 -2.95 -3 -3.85 -3.40 -3.30 -1.25 -3.15 -45.30 -3.15 -22 0 -40.40 0.15 -40.90 0.30 -2.05 0.75 -5.05 3.30 -6.70 5.75 l-1.75 2.60 0 19.40 c0 10.70 -0.15 19.45 -0.35 19.45 -0.80 0 -0.35 2.40 0.90 4.90 1.45 2.90 4.70 5.85 7.55 6.90 1.55 0.55 9.30 0.65 41.65 0.55 l39.75 -0.10 2.20 -1.45z m123.55 0.10 c2.80 -1.65 4.60 -3.50 6.10 -6.40 1.15 -2.25 1.15 -2.45 1.30 -21.95 0.20 -22.30 0.20 -22.30 -3.55 -26.20 -4.05 -4.15 -0.70 -3.85 -46.20 -3.85 l-40.45 0 -2.25 1.40 c-3.20 2.05 -5.30 4.70 -6.25 7.90 -0.70 2.45 -0.80 5.20 -0.60 20.25 0.10 9.60 -0.05 17.50 -0.25 17.60 -0.80 0.25 0.25 3.75 1.85 6.45 1.65 2.75 5.55 5.65 8.25 6.05 0.70 0.10 18.95 0.20 40.55 0.15 l39.25 -0.05 2.25 -1.35z m124.40 -0.35 c2.85 -1.80 5.05 -4.65 6.15 -7.80 0.50 -1.55 0.65 -6.60 0.65 -21.50 0.05 -21.75 0.20 -20.60 -3.60 -24.85 -3.70 -4.15 -0.75 -3.90 -46 -3.90 -38.65 0 -40.20 0.05 -42.05 0.95 -2.45 1.30 -5.30 4.25 -6.60 6.95 -1 2.05 -1.05 2.75 -0.90 20.85 0.15 10.85 0 18.80 -0.25 18.90 -0.75 0.25 0.15 3.55 1.65 5.95 1.50 2.35 5.10 5.20 7.45 5.90 0.75 0.25 19.25 0.40 41.10 0.35 l39.75 -0.10 2.65 -1.70z m123.15 0.35 c1.25 -0.75 3.05 -2.20 3.95 -3.20 3.20 -3.65 3.15 -3.45 3.40 -25.50 0.20 -18.35 0.15 -20.20 -0.65 -21.75 -1.60 -3.10 -3.85 -5.45 -6.30 -6.70 l-2.40 -1.25 -40.05 0 c-32.85 0 -40.35 0.10 -41.70 0.70 -2.45 1.05 -5.25 3.70 -6.60 6.35 l-1.20 2.40 0 19 c0 11.60 -0.20 19.05 -0.50 19.15 -0.75 0.25 0.30 3.90 1.85 6.05 1.80 2.55 4.50 4.75 6.95 5.60 1.60 0.60 8.75 0.70 41.45 0.60 l39.50 -0.10 2.30 -1.35z m123.90 -0.10 c3.05 -1.95 4.50 -3.60 6 -6.80 l1.25 -2.75 0.05 -19.50 c0 -19.50 0 -19.50 -1.15 -21.75 -1.60 -3 -3.90 -5.40 -6.35 -6.55 -1.90 -0.90 -4.10 -0.95 -42.15 -0.95 -39.20 0 -40.20 0 -42.10 1 -2.35 1.20 -5.15 3.90 -6.35 6.15 -0.80 1.45 -0.90 3.40 -0.90 21 0 10.85 -0.20 19.35 -0.45 19.35 -0.25 0 -0.30 0.90 -0.15 1.95 0.30 2.35 2.70 6 5.10 7.85 3.65 2.75 2.30 2.70 45.25 2.55 l39.75 -0.10 2.20 -1.45z m-559.55 -143.30 c-0.10 -1.65 -0.30 -3 -0.50 -3 -0.25 0 -21.45 0 -47.15 0 l-46.75 0 0 3 0 3 47.25 0 47.30 0 -0.15 -3z m129.05 -0.60 c0 -2 -0.15 -3.35 -0.30 -3 -0.30 0.80 -76.15 0.90 -76.15 0.10 0 -0.25 -0.35 -0.50 -0.75 -0.50 -0.60 0 -0.75 0.70 -0.75 3.50 l0 3.50 39 0 39 0 -0.05 -3.60z m123 0 c0 -2 -0.15 -3.35 -0.30 -3 -0.30 0.80 -64.65 0.90 -64.65 0.10 0 -0.25 -0.20 -0.50 -0.50 -0.50 -0.30 0 -0.50 1.50 -0.50 3.50 l0 3.50 33 0 33 0 -0.05 -3.60z m134.05 0.50 l0 -3.15 -37.50 0.15 c-25.20 0.05 -37.50 -0.05 -37.50 -0.40 0 -0.25 -0.35 -0.50 -0.75 -0.50 -0.60 0 -0.75 0.70 -0.75 3.15 0 1.75 0.15 3.35 0.35 3.50 0.15 0.20 17.40 0.35 38.25 0.35 l37.90 0 0 -3.10z m231.85 -269.90 c0.20 -0.75 0.70 -1 1.95 -1 2.15 0 4.55 -2.05 6.20 -5.35 l1.25 -2.40 0 -26.75 c0 -28.40 -0.10 -30 -2.30 -30 -0.65 0 -0.95 -0.35 -0.95 -1.15 0 -1.20 -1.10 -2.45 -3.75 -4.15 -1.45 -0.90 -3.15 -0.95 -62.15 -1.10 l-60.70 -0.10 -2.80 1.50 c-2.10 1.10 -3.40 2.30 -4.85 4.40 l-2 2.85 0 27.50 c0 27.40 0 27.50 1.10 29.55 1.45 2.70 3.45 4.70 6.20 6.05 l2.20 1.15 60.15 0 c59.80 0 60.20 0 60.45 -1z"/>
  <path d="M165.55 525.80 c-1.45 -6.40 -2.55 -12.20 -2.45 -12.85 0.15 -1.05 0.45 -1.20 2.80 -1.35 1.80 -0.10 2.65 0.05 2.80 0.50 0.15 0.35 0.85 3.45 1.65 6.90 l1.45 6.25 1.15 -4.25 c0.60 -2.35 1.45 -5.45 1.90 -6.85 l0.70 -2.65 2.45 0 c2.95 0 2.90 -0.05 4.70 6.75 0.75 2.75 1.50 5.45 1.65 6 0.20 0.60 0.90 -1.55 1.85 -5.75 l1.55 -6.75 2.50 0 2.50 0 0.15 2 c0.05 1.10 -0.95 6.80 -2.30 12.75 l-2.45 10.75 -3.25 0.15 -3.25 0.15 -1.60 -5.70 c-0.85 -3.15 -1.55 -6 -1.60 -6.40 -0.05 -1.05 -1.15 2.25 -2.45 7.45 l-1.20 4.60 -3.30 0 -3.30 0 -2.65 -11.70z"/>
  <path d="M298.75 537.80 c-0.25 -0.10 -1.10 -0.35 -1.90 -0.50 -2.35 -0.55 -5.25 -3.60 -6.10 -6.45 -0.85 -2.90 -1 -9.25 -0.25 -11.90 1.45 -5.15 4.95 -7.45 11.25 -7.45 8.40 0.05 11.75 3.75 11.75 13.05 0 6.40 -1.75 10.25 -5.55 12.25 -1.45 0.75 -8.05 1.45 -9.20 1z m6.50 -7.45 c3.85 -3.85 2.30 -11.95 -2.50 -13.15 -2.15 -0.55 -4.65 0.95 -5.75 3.45 -3.30 7.25 3.15 14.80 8.25 9.70z"/>
  <path d="M415.50 524.45 l0 -13.10 6.90 0.25 c7.75 0.25 9.55 0.80 11.95 3.55 2.15 2.45 2.80 5.15 2.55 10.60 -0.30 6.80 -2.25 9.85 -7.15 11.20 -1.10 0.30 -4.75 0.55 -8.10 0.55 l-6.15 0 0 -13.05z m11.80 6.80 c3.15 -1.30 4.65 -6.65 2.80 -10.20 -1.25 -2.45 -3 -3.55 -6.25 -3.90 l-2.85 -0.30 0 7.60 0 7.55 2.25 0 c1.25 0 3.05 -0.35 4.05 -0.75z"/>
  <path d="M538.50 535.60 c0 -1.75 6.05 -20.40 7.50 -23.10 0.45 -0.85 1.05 -1 3.45 -1 1.75 0 3.10 0.25 3.40 0.65 1.05 1.30 7.65 21.70 7.65 23.50 l0 1.90 -2.85 -0.15 -2.85 -0.15 -0.80 -2.50 c-1.10 -3.65 -1.20 -3.75 -4.45 -3.75 -3.35 0 -3.65 0.25 -4.70 3.75 l-0.70 2.50 -2.85 0.15 -2.80 0.15 0 -1.95z m12.30 -10.40 c-0.15 -0.45 -0.45 -1.35 -0.60 -2 -0.40 -1.65 -0.90 -1.50 -1.60 0.45 -0.85 2.30 -0.80 2.35 0.95 2.35 1.20 0 1.50 -0.15 1.25 -0.80z"/>
 </g>
 <g fill="#e1e1e1">
  <path d="M135.30 559.25 c-2.55 -0.90 -5.20 -3.10 -7.05 -5.80 -1.15 -1.70 -1.50 -2.85 -1.65 -5.30 -0.15 -2.10 -0.05 -3.15 0.35 -3.15 0.30 0 0.55 -0.35 0.55 -0.75 0 -0.40 0.35 -0.75 0.80 -0.75 0.70 0 0.80 0.40 0.60 2.25 -0.35 2.85 1.20 6.35 3.80 8.60 3.80 3.40 0.60 3.20 45.40 3.05 l40.65 -0.15 2.20 -1.50 c2.30 -1.55 5.50 -5.85 4.55 -6.15 -0.55 -0.20 -0.70 -3.60 -0.10 -3.60 0.20 0 0.65 -0.65 1 -1.50 0.45 -0.95 1.05 -1.50 1.70 -1.50 0.95 0 1 0.25 0.80 3.65 -0.30 4.15 -1.50 6.90 -4.20 9.55 -3.90 3.80 -0.65 3.55 -46.45 3.65 -33.95 0.10 -41.35 0 -42.95 -0.60z"/>
  <path d="M259.35 559.40 c-2.35 -0.65 -6.55 -4.40 -7.95 -7.05 -1.15 -2.35 -1.85 -7.85 -0.95 -7.85 0.30 0 0.55 -0.35 0.55 -0.80 0 -0.50 0.35 -0.70 1.15 -0.60 0.90 0.10 1.15 0.50 1.25 2.10 0.10 1.20 -0.10 2.10 -0.50 2.35 -0.50 0.35 -0.35 1 0.75 3.15 1.60 3.05 2.75 4.25 5.60 5.75 1.95 1.05 2.30 1.05 42.25 1.05 40 0 40.25 0 42 -1.05 4.30 -2.55 6.55 -6.05 6.70 -10.15 0.05 -2.25 0.20 -2.55 1.20 -2.70 1.05 -0.15 1.10 0 1.10 3.15 0 2.50 -0.30 3.85 -1.25 5.75 -1.45 2.85 -5.35 6.20 -8.15 7 -2.50 0.65 -81.10 0.60 -83.75 -0.10z"/>
  <path d="M382.85 559.30 c-4.90 -1.80 -8.85 -7.20 -8.85 -12.15 0 -1.45 0.25 -2.65 0.50 -2.65 0.30 0 0.50 -0.35 0.50 -0.80 0 -0.45 0.35 -0.70 0.90 -0.60 0.70 0.15 0.85 0.70 0.85 3.40 0 3.75 0.80 5.55 3.50 7.90 3.75 3.35 0.65 3.15 45.35 3 l40.65 -0.15 2.15 -1.45 c1.20 -0.85 2.90 -2.50 3.75 -3.75 1.30 -1.95 1.55 -2.70 1.45 -4.90 -0.05 -1.55 0.10 -2.65 0.40 -2.65 0.25 0 0.50 -0.45 0.50 -1 0 -0.65 0.35 -1 1 -1 0.90 0 1 0.35 1 3.50 0 5.30 -2.20 9.20 -7.05 12.30 l-2.20 1.45 -41.25 0.10 c-33.60 0.10 -41.60 0 -43.15 -0.55z"/>
  <path d="M507.65 559.55 c-4.35 -1.10 -8.40 -5.05 -9.65 -9.55 -0.65 -2.30 -0.65 -6 0 -6 0.30 0 0.50 -0.35 0.50 -0.75 0 -0.45 0.45 -0.75 1.05 -0.75 1 0 1.05 0.20 0.80 2.85 -0.50 4.60 1.85 8.70 6.15 10.90 l2.45 1.25 40.15 0 40.10 0 2.55 -1.55 c3.75 -2.25 6.25 -6.30 6.25 -10.15 0 -2.60 0.55 -3.80 1.60 -3.80 1 0 1 0.20 0.70 4.15 -0.55 6.05 -2.55 9.45 -7.30 12.25 l-2.25 1.35 -40.75 0.10 c-22.40 0 -41.45 -0.10 -42.35 -0.30z"/>
  <path d="M630.75 559.45 c-0.80 -0.25 -2.60 -1.30 -3.95 -2.30 -3.30 -2.50 -5.30 -6.30 -5.30 -9.95 0 -1.50 0.25 -2.70 0.50 -2.70 0.30 0 0.50 -0.35 0.50 -0.75 0 -0.40 0.45 -0.75 1 -0.75 0.85 0 1 0.35 1 1.95 0 1.10 -0.25 2.05 -0.55 2.15 -0.80 0.25 0.95 4.10 2.75 6.30 0.80 0.90 2.35 2.20 3.55 2.85 l2.10 1.25 40.70 -0.10 40.70 -0.15 2.30 -1.60 c2.55 -1.80 4.45 -4.25 3.55 -4.55 -0.35 -0.10 -0.60 -0.95 -0.60 -1.90 0 -1.45 0.15 -1.70 1.20 -1.70 1.05 0 1.20 -0.30 1.50 -2.50 0.25 -2.05 0.50 -2.50 1.30 -2.50 0.90 0 1 0.35 1 3.20 0 5.50 -2.15 9.50 -6.60 12.35 l-2.65 1.70 -41.25 0.10 c-23.45 0.05 -41.90 -0.10 -42.75 -0.40z"/>
  <path d="M754.90 559.50 c-3.25 -1 -6.95 -4.20 -8.65 -7.50 -1 -1.95 -1.60 -7.50 -0.80 -7.50 0.30 0 0.55 -0.35 0.55 -0.75 0 -0.45 0.45 -0.75 1.05 -0.75 1 0 1.05 0.20 0.80 2.65 -0.45 4.40 2.10 8.55 6.70 10.85 1.85 0.95 3.15 1 42.10 1 l40.15 0 2.60 -1.65 c1.45 -0.90 3.30 -2.65 4.10 -3.85 1.25 -1.85 1.40 -2.50 1.15 -4.60 -0.20 -1.55 -0.10 -2.40 0.25 -2.40 0.30 0 0.65 -0.65 0.85 -1.50 0.25 -1.05 0.65 -1.50 1.30 -1.50 0.85 0 0.95 0.30 0.75 3.95 -0.15 2.15 -0.55 4.70 -0.95 5.65 -1 2.45 -3.60 5.20 -6.30 6.80 l-2.30 1.35 -41 0.10 c-22.55 0.05 -41.60 -0.10 -42.35 -0.35z"/>
  <path d="M877.85 559.30 c-2.60 -0.95 -5.05 -2.95 -6.95 -5.70 -1.35 -1.95 -1.65 -2.90 -1.80 -5.70 -0.15 -2.30 -0.05 -3.40 0.35 -3.40 0.30 0 0.55 -0.35 0.55 -0.75 0 -1.10 1.55 -0.90 1.85 0.25 0.15 0.55 0.45 1 0.70 1 0.25 0 0.45 0.80 0.45 1.75 0 1.25 -0.20 1.75 -0.80 1.75 -2 0 1.30 4.85 5 7.40 l2.40 1.60 40.25 0 c45.15 0 41.90 0.25 45.90 -3.75 1.60 -1.60 1.80 -2 1.10 -2.15 -0.60 -0.15 -0.85 -0.65 -0.85 -1.90 0 -1.55 0.15 -1.70 1.45 -1.70 1.55 0 2.05 -0.90 2.05 -3.85 0 -1.30 0.20 -1.65 1 -1.65 0.90 0 1 0.35 1 3.40 0 5.35 -2.25 9.30 -7.05 12.40 l-2.20 1.45 -41.25 0.10 c-33.60 0.10 -41.60 0 -43.15 -0.55z"/>
  <path d="M258.10 498.45 c0.15 -0.40 0.90 -0.90 1.70 -1.20 0.80 -0.25 1.60 -0.65 1.75 -0.90 0.15 -0.20 1.35 -0.15 2.60 0.20 2.75 0.65 3.20 1.95 0.75 1.95 -0.90 0 -2.85 0.15 -4.35 0.35 -2.20 0.25 -2.65 0.15 -2.45 -0.40z"/>
  <path d="M384 497.75 c0 -0.40 0.30 -0.75 0.70 -0.75 0.40 0 0.80 -0.25 0.90 -0.55 0.25 -0.80 4.90 0.50 4.90 1.35 0 0.55 -0.80 0.70 -3.25 0.70 -2.55 0 -3.25 -0.15 -3.25 -0.75z"/>
  <path d="M402.75 410.50 c-0.15 -0.25 -0.85 -0.50 -1.55 -0.50 -2.25 0 -0.95 -1.40 2.10 -2.25 1.05 -0.25 1.65 0.70 1.70 2.65 0 0.70 -1.80 0.80 -2.25 0.10z"/>
  <path d="M530.65 410.15 c-1.60 -0.20 -2.35 -1.15 -0.95 -1.15 0.40 0 0.80 -0.20 0.90 -0.45 0.10 -0.25 0.90 -0.60 1.80 -0.80 1.55 -0.30 1.60 -0.25 1.60 1.20 0 1.65 0.05 1.60 -3.35 1.20z"/>
  <path d="M653.65 410.15 c-1.60 -0.20 -2.35 -1.15 -0.95 -1.15 0.40 0 0.80 -0.20 0.90 -0.45 0.10 -0.25 0.90 -0.60 1.80 -0.80 1.25 -0.25 1.60 -0.15 1.60 0.40 0 0.45 0.15 1.10 0.30 1.55 0.30 0.85 -0.10 0.90 -3.65 0.45z"/>
  <path d="M452.85 408.90 c-0.40 -1.45 -0.20 -1.55 1.60 -1.15 1.80 0.40 2.05 1.50 0.45 1.95 -1.70 0.45 -1.75 0.40 -2.05 -0.80z"/>
  <path d="M587.80 409.30 c0.15 -0.45 0.05 -0.80 -0.25 -0.80 -0.30 0 -0.55 -0.20 -0.55 -0.50 0 -0.25 0.60 -0.50 1.30 -0.50 1.05 0 1.25 0.20 1.10 1.10 -0.10 0.65 -0.55 1.20 -1 1.30 -0.65 0.10 -0.80 -0.05 -0.60 -0.60z"/>
  <path d="M711.35 408.90 c-0.40 -1.45 -0.20 -1.55 1.60 -1.15 1.80 0.40 2.05 1.50 0.45 1.95 -1.70 0.45 -1.75 0.40 -2.05 -0.80z"/>
  <path d="M897.05 144.85 c-2.95 -1.50 -4.95 -3.55 -6.35 -6.60 l-1.20 -2.50 0.15 -28.50 0.10 -28.50 2 -2.85 c1.45 -2.10 2.75 -3.30 4.85 -4.40 l2.80 -1.50 62.20 0.10 62.15 0.15 2.05 1.35 c2.45 1.60 5.10 4.80 6 7.30 0.85 2.35 1 54.80 0.15 57.60 -0.80 2.70 -2.95 5.50 -5.70 7.45 l-2.45 1.80 -62.30 0.10 -62.25 0.15 -2.20 -1.15z"/>
 </g>
 <g fill="#d4d4d4">
  <path d="M134 557.95 c-2.85 -1.70 -4.55 -3.55 -5.80 -6.20 -1.25 -2.60 -1.40 -4 -0.90 -6.70 0.45 -2.20 1.70 -1.95 3.35 0.70 0.75 1.20 2.60 3 4.05 3.95 l2.70 1.80 40.70 0 40.70 0 2.30 -1.45 c1.25 -0.80 2.90 -2.25 3.70 -3.25 0.90 -1.15 1.90 -1.80 2.60 -1.80 0.80 0 1.05 0.20 0.80 0.60 -0.20 0.35 -0.35 1.50 -0.30 2.65 0.15 2.80 -2.15 6.70 -5.25 8.85 l-2.40 1.65 -42.25 0.15 c-42.20 0.10 -42.25 0.10 -44 -0.95z"/>
  <path d="M257.75 557.95 c-2.80 -1.45 -3.65 -2.35 -5.30 -5.20 -1.55 -2.65 -2 -6.45 -0.80 -6.90 0.50 -0.20 0.50 -0.35 0 -0.90 -1 -1.05 -0.80 -2.45 0.35 -2.45 0.60 0 1 0.35 1 0.80 0 1.30 3.40 5.15 5.95 6.75 l2.25 1.45 40.40 0 c39.75 0 40.50 0 42.45 -1 2 -1.05 5.95 -4.70 5.95 -5.55 0 -0.25 0.60 -0.45 1.30 -0.45 0.85 0 1.15 0.20 0.90 0.60 -0.25 0.35 -0.35 1.35 -0.25 2.25 0.15 1.85 -1.50 5.80 -3.10 7.60 -0.60 0.65 -2.10 1.85 -3.30 2.60 l-2.25 1.45 -41.80 0 c-41.50 0 -41.80 0 -43.75 -1.05z"/>
  <path d="M381.50 557.95 c-2.55 -1.50 -4.45 -3.45 -5.50 -5.50 -1.10 -2.10 -1.90 -6.95 -1.15 -6.95 0.30 0 0.40 -0.55 0.25 -1.25 -0.15 -1 0 -1.25 0.85 -1.25 0.55 0 1.05 0.25 1.05 0.50 0 1.35 2.90 4.70 5.45 6.25 l2.75 1.75 40.60 0 40.60 0 2.40 -1.60 c1.35 -0.90 3.10 -2.60 3.95 -3.75 0.80 -1.15 1.90 -2.10 2.45 -2.10 0.85 -0.05 0.90 0.25 0.65 2.90 -0.30 3.55 -1.50 6.20 -3.85 8.55 -3.75 3.75 -0.60 3.50 -47.10 3.50 -41.40 0 -41.65 0 -43.40 -1.05z"/>
  <path d="M504.85 557.70 c-1.30 -0.65 -3.05 -2.15 -3.85 -3.30 -2.25 -3.10 -3.90 -9.40 -2.45 -9.40 0.30 0 0.45 -0.35 0.25 -0.75 -0.20 -0.55 0.05 -0.75 0.90 -0.75 0.85 0 1.35 0.45 1.80 1.50 0.35 0.80 1.50 2.25 2.55 3.25 3.85 3.45 1.25 3.30 46.15 3.15 l40.55 -0.15 2.10 -1.40 c1.15 -0.80 2.70 -2.30 3.45 -3.40 0.85 -1.25 1.70 -1.95 2.45 -1.95 1 0 1.05 0.15 0.70 2.90 -0.55 4.85 -2.20 7.50 -6.20 10.05 l-2.45 1.55 -41.75 0 -41.80 -0.05 -2.40 -1.25z"/>
  <path d="M628.40 557.55 c-2.50 -1.60 -4.50 -3.90 -5.65 -6.70 -0.85 -2.10 -1 -5.35 -0.20 -5.35 0.30 0 0.45 -0.35 0.25 -0.75 -0.20 -0.55 0.05 -0.75 0.85 -0.75 0.80 0 1.40 0.55 2.10 1.85 0.60 1.10 2.15 2.55 3.95 3.75 l2.95 1.90 40.60 0 40.60 0 2.75 -1.80 c1.50 -1 3.25 -2.70 3.95 -3.75 0.65 -1.05 1.60 -1.95 2.05 -1.95 0.80 0 0.85 0.35 0.60 3.15 -0.40 3.80 -1.35 6 -3.70 8.35 -3.75 3.75 -0.60 3.50 -47.10 3.50 l-41.70 0 -2.30 -1.45z"/>
  <path d="M752.95 558 c-4.75 -2.50 -6.95 -6.35 -6.85 -12.15 0 -3.40 0.15 -3.85 0.95 -3.85 0.55 0 0.95 0.30 0.95 0.65 0 1.45 3.10 5.40 5.60 7.05 l2.65 1.80 40.75 0 40.75 0 2.55 -1.70 c1.35 -0.95 3.05 -2.50 3.70 -3.50 0.75 -1.05 1.65 -1.80 2.30 -1.80 0.95 0 1 0.20 0.65 3.25 -0.40 4.25 -2.45 7.40 -6.05 9.65 l-2.70 1.60 -41.70 0 c-40.20 -0.05 -41.80 -0.10 -43.55 -1z"/>
  <path d="M875.95 557.60 c-3 -1.90 -5.25 -4.70 -5.90 -7.40 -0.70 -2.65 -0.70 -4.70 -0.05 -4.70 0.25 0 0.35 -0.35 0.20 -0.75 -0.20 -0.50 0 -0.75 0.70 -0.75 0.55 0 1.55 0.80 2.35 2 1.40 2 5.10 4.85 7 5.30 0.55 0.10 19.10 0.15 41.25 0.10 l40.25 -0.15 2.35 -1.50 c1.30 -0.80 2.95 -2.45 3.70 -3.60 0.85 -1.35 1.70 -2.15 2.35 -2.15 0.90 0 0.95 0.25 0.65 3.10 -0.40 4.05 -2.40 7.60 -5.60 9.90 l-2.40 1.75 -42.30 0.15 -42.30 0.10 -2.25 -1.40z"/>
  <path d="M403 412 c0 -0.80 -0.35 -1 -1.75 -1 -1.40 0 -1.75 -0.20 -1.75 -0.95 0 -0.85 0.90 -1.35 3.45 -1.85 1.05 -0.20 2 1.30 2.05 3.20 0 1.25 -0.20 1.60 -1 1.60 -0.65 0 -1 -0.35 -1 -1z"/>
  <path d="M453 410.50 l0 -2.50 2.25 0 c1.25 0 2.25 0.25 2.25 0.50 0 0.30 0.35 0.50 0.75 0.50 0.40 0 0.75 0.45 0.75 1 0 0.85 -0.35 1 -2 1 -1.65 0 -2 0.15 -2 1 0 0.65 -0.35 1 -1 1 -0.85 0 -1 -0.35 -1 -2.50z"/>
  <path d="M587.80 411.65 c-0.10 -0.80 -0.15 -1.95 -0.10 -2.65 0.15 -1.15 0.35 -1.25 2.10 -1.10 1.05 0.10 2.05 0.40 2.10 0.65 0.10 0.25 0.50 0.45 0.90 0.45 0.40 0 0.70 0.45 0.70 1 0 0.85 -0.35 1 -2 1 -1.65 0 -2 0.15 -2 1 0 1.50 -1.40 1.20 -1.70 -0.35z"/>
  <path d="M655.50 412 c0 -0.80 -0.35 -1 -1.75 -1 -1.40 0 -1.75 -0.20 -1.75 -0.95 0 -0.85 0.85 -1.35 3.50 -1.85 1.15 -0.25 2.10 1.65 1.75 3.35 -0.35 1.65 -1.75 2 -1.75 0.45z"/>
  <path d="M711.50 410.50 l0 -2.50 2.25 0 c1.25 0 2.25 0.25 2.25 0.50 0 0.30 0.35 0.50 0.75 0.50 0.40 0 0.75 0.45 0.75 1 0 0.85 -0.35 1 -2 1 -1.65 0 -2 0.15 -2 1 0 0.65 -0.35 1 -1 1 -0.85 0 -1 -0.35 -1 -2.50z"/>
  <path d="M529 410.05 c0 -0.85 0.90 -1.35 3.50 -1.85 0.85 -0.15 1.50 0.65 1.50 1.95 0 0.70 -0.45 0.85 -2.50 0.85 -2.10 0 -2.50 -0.15 -2.50 -0.95z"/>
  <path d="M898.70 145.60 c-2.05 -0.65 -5.45 -3.15 -6.65 -4.90 -1.85 -2.70 -0.90 -2.55 1.90 0.30 1.55 1.65 2.75 2.50 3.25 2.35 0.40 -0.15 0.85 0.05 1 0.50 0.20 0.45 0.70 0.65 1.30 0.50 0.55 -0.15 1 -0.05 1 0.20 0 0.25 0.35 0.45 0.75 0.45 0.40 0 0.75 0.25 0.75 0.50 0 0.55 -1.65 0.60 -3.30 0.10z"/>
  <path d="M1026.25 142.75 c1.65 -1.45 1.85 -1.85 1.25 -2.25 -0.60 -0.40 -0.55 -0.50 0.35 -0.50 0.65 0 1.45 -0.50 1.90 -1.15 1 -1.55 1.55 -4.35 0.80 -4.35 -0.30 0 -0.55 -0.20 -0.55 -0.50 0 -0.25 0.35 -0.50 0.75 -0.50 0.65 0 0.75 -3.20 0.75 -26 0 -22.80 -0.10 -26 -0.75 -26 -0.90 0 -1 -0.85 -0.15 -1.10 0.40 -0.15 0.45 -0.60 0 -1.80 -0.65 -1.85 -0.15 -2.10 0.90 -0.50 0.65 1 0.75 5.30 0.90 28.65 0.10 26.30 -0.10 31.75 -1.35 31.75 -0.20 0 -0.60 0.65 -0.90 1.45 -0.50 1.40 -4.25 4.55 -5.35 4.55 -0.30 -0.05 0.35 -0.80 1.45 -1.75z"/>
  <path d="M898 71.25 c0 -0.65 1.50 -1.25 3.15 -1.25 1.60 0 0.85 0.85 -1.15 1.40 -1.55 0.40 -2 0.35 -2 -0.15z"/>
 </g>
 <g fill="#41a0a1">
  <path d="M133.50 551.45 c-2.75 -1.85 -4.30 -3.60 -5.55 -6.20 -0.85 -1.85 -0.95 -3.40 -0.95 -20.15 0 -19.65 0 -19.70 2.80 -23.40 0.75 -1 2.50 -2.45 3.90 -3.25 l2.55 -1.45 41.70 0 c40.65 0 41.80 0.05 43.80 1 2.45 1.20 4.75 3.50 6.20 6.25 1 1.90 1.05 2.65 1.05 21.05 l0 19.05 -1.90 2.70 c-1.05 1.50 -2.95 3.45 -4.30 4.35 l-2.40 1.60 -42.35 0 -42.30 -0.05 -2.25 -1.50z m41.95 -23.55 c1.20 -4.50 2.35 -8.35 2.55 -8.55 0.40 -0.45 0.75 0.55 3.55 10.80 l1.60 5.90 1.75 -0.15 1.75 -0.15 2.50 -10.90 c2.45 -10.85 2.55 -12.40 0.75 -11.70 -0.45 0.15 -1.45 3.50 -2.65 8.90 -1.05 4.80 -2.10 9 -2.25 9.40 -0.45 0.85 -0.20 1.55 -3.05 -8.95 -1.15 -4.25 -2.25 -8.15 -2.55 -8.60 -0.55 -1.15 -2.25 -1.15 -2.60 0 -0.15 0.45 -0.95 3.45 -1.80 6.60 -2.55 9.40 -3.05 11 -3.55 11 -0.25 0 -0.45 -0.40 -0.45 -0.85 0 -0.50 -0.90 -4.60 -1.95 -9.15 -1.80 -7.85 -1.95 -8.25 -3.10 -8.25 -1.45 0 -1.55 -0.90 1.35 12.15 l2.40 10.60 1.80 0 1.75 0 2.20 -8.10z"/>
  <path d="M257.45 551.60 c-1.20 -0.80 -2.85 -2.15 -3.60 -3.10 -2.80 -3.35 -2.85 -3.55 -2.85 -23.65 0 -17.70 0.05 -18.65 1.05 -20.65 1.15 -2.45 4.30 -5.50 6.75 -6.50 1.40 -0.60 8.70 -0.70 43.20 -0.70 40.50 0 41.60 0.05 43.50 1 2.50 1.30 5.20 4.05 6.50 6.70 0.95 2 1 3.05 1 20.30 0 17.80 0 18.20 -1.10 20.40 -1.40 2.80 -3.80 5.25 -6.40 6.60 -1.90 1 -2.90 1 -43.90 1 l-41.90 0 -2.25 -1.40z m49.15 -16.40 c3.30 -1.70 5.40 -5.85 5.40 -10.65 0 -7.05 -4 -11.50 -10.25 -11.55 -7.70 0 -12.10 7.55 -9.50 16.35 0.85 2.85 3.75 5.90 6.10 6.45 0.80 0.15 1.65 0.35 1.90 0.45 0.90 0.35 4.95 -0.35 6.35 -1.05z"/>
  <path d="M299.20 533.50 c-3.10 -0.95 -4.70 -4.10 -4.70 -9.20 0.05 -5.90 2.45 -8.80 7.35 -8.80 5.15 0 7.50 3.40 7.05 10.20 -0.25 3.90 -1.05 5.70 -3.05 7 -1.45 1 -4.75 1.35 -6.65 0.80z"/>
  <path d="M380.95 551.25 c-3 -1.85 -5 -4.40 -5.95 -7.55 -0.40 -1.35 -0.50 -7.35 -0.40 -20 l0.15 -18.05 1.75 -2.60 c0.95 -1.40 2.75 -3.30 4 -4.20 l2.25 -1.60 41.75 -0.15 c29.45 -0.10 42.30 0 43.65 0.40 2.40 0.70 5.50 3.45 7.25 6.45 l1.35 2.30 0 18.50 c0 18.45 0 18.50 -1.15 20.75 -1.50 2.90 -2.80 4.30 -5.55 6.05 l-2.25 1.45 -42.05 0 -42.05 0 -2.75 -1.75z m47.30 -15.80 c4.35 -1.20 6.70 -4.40 7.10 -9.70 0.35 -3.85 -0.50 -6.80 -2.50 -9.10 -2.25 -2.55 -4.30 -3.25 -10.45 -3.55 l-5.40 -0.25 0 11.60 0 11.55 4.65 0 c2.50 0 5.50 -0.25 6.60 -0.55z"/>
  <path d="M419.50 524.45 l0 -9.10 4.25 0.25 c4.80 0.25 6.40 1.05 7.85 3.95 1.25 2.35 1.20 7.55 -0.10 10.35 -1.25 2.75 -3.20 3.60 -8.25 3.60 l-3.75 0 0 -9.05z"/>
  <path d="M505.75 552 c-2.70 -1.40 -4.60 -3.30 -6.15 -6.25 l-1.35 -2.50 -0.15 -17.15 c-0.15 -14.45 -0.05 -17.60 0.65 -19.90 0.90 -3.10 3 -5.75 6.20 -7.80 l2.25 -1.40 41.95 0 c47.20 0 43.65 -0.30 47.70 3.85 3.70 3.80 3.70 3.95 3.55 24.95 l-0.15 18.60 -1.90 2.75 c-1.05 1.50 -2.85 3.40 -4 4.20 l-2.10 1.40 -42.25 0.10 c-41.25 0.10 -42.30 0.10 -44.25 -0.85z m37.60 -18.75 c0.40 -1.35 1 -2.80 1.25 -3.10 0.35 -0.45 2 -0.65 4.95 -0.65 4.90 0 4.80 -0.05 5.95 3.75 0.65 2.10 1 2.50 2.15 2.65 0.75 0.10 1.35 0 1.35 -0.25 0 -0.75 -7.15 -21.40 -7.65 -22 -0.75 -1.05 -3.25 -0.80 -3.85 0.35 -0.65 1.25 -7.50 20.90 -7.50 21.60 0 0.25 0.60 0.40 1.35 0.30 1.10 -0.15 1.40 -0.55 2 -2.65z"/>
  <path d="M545.75 526.40 c0.80 -2.85 3.45 -9.95 3.75 -10.15 0.15 -0.10 1.05 2.10 1.95 4.90 0.95 2.80 1.80 5.40 1.90 5.75 0.20 0.45 -0.75 0.60 -3.85 0.60 -4 0 -4.05 0 -3.75 -1.10z"/>
  <path d="M628.15 551.05 c-2.50 -1.60 -3.30 -2.50 -4.60 -5.10 l-1.55 -3.10 0 -18 c0 -16.90 0.05 -18.15 1 -20.05 1.25 -2.60 4.15 -5.60 6.55 -6.85 1.85 -0.90 3.45 -0.95 43.55 -0.95 46.90 0 43.80 -0.25 47.50 3.90 3.80 4.20 3.65 3.20 3.65 23.85 0 20.25 0 20.10 -3.05 23.70 -0.80 0.95 -2.45 2.35 -3.65 3.15 l-2.25 1.40 -42.05 0 -42.10 0 -3 -1.95z"/>
  <path d="M752 551.10 c-1.55 -1.05 -3.35 -2.90 -4.25 -4.30 l-1.50 -2.45 -0.15 -18.90 -0.15 -18.90 1.25 -2.45 c1.35 -2.70 4.10 -5.35 6.60 -6.40 1.35 -0.60 9.10 -0.70 43.20 -0.70 l41.55 0 2.40 1.25 c2.45 1.20 4.70 3.60 6.25 6.65 0.75 1.45 0.80 3.65 0.70 20.50 l-0.15 18.85 -1.70 2.70 c-1 1.50 -2.75 3.35 -4.25 4.35 l-2.55 1.70 -42.30 0 -42.30 0 -2.65 -1.90z"/>
  <path d="M877.75 552.45 c-2.95 -1.65 -4.90 -3.35 -6.35 -5.60 l-1.65 -2.60 0 -19.25 c0 -17.45 0.10 -19.40 0.90 -20.85 1.20 -2.25 4 -4.95 6.35 -6.15 1.90 -1 2.90 -1 43.60 -1 39.50 0 41.75 0.05 43.65 0.95 2.45 1.15 4.75 3.55 6.35 6.55 1.15 2.25 1.15 2.35 1.15 20.50 l0 18.25 -1.25 2.40 c-1.40 2.75 -4.30 5.60 -6.80 6.65 -1.40 0.60 -8.70 0.70 -43.30 0.70 -29.05 -0.05 -41.95 -0.20 -42.65 -0.55z"/>
 </g>
 <g fill="#535354">
  <path d="M302.70 685.50 c-2.90 -1.65 -5.45 -4.80 -6.25 -7.60 -0.30 -1.20 -0.45 -12.20 -0.35 -30 l0.15 -28.15 1.65 -2.50 c0.90 -1.35 2.85 -3.30 4.25 -4.25 l2.60 -1.75 62.25 0 c60.55 0 62.30 0.05 64.20 0.95 2.65 1.35 4.90 3.70 6.35 6.60 l1.20 2.45 0 28 0 28 -1.35 2.55 c-0.75 1.45 -2.20 3.30 -3.25 4.15 -4 3.30 1.10 3.05 -67 3.05 l-61.90 0 -2.55 -1.50z"/>
  <path d="M908.50 145.50 c0 -0.35 17.85 -0.50 52.50 -0.50 34.65 0 52.50 0.15 52.50 0.50 0 0.35 -17.85 0.50 -52.50 0.50 -34.65 0 -52.50 -0.15 -52.50 -0.50z"/>
  <path d="M890.95 138.90 l-1.20 -2.15 -0.15 -27.45 c-0.10 -18.55 0.05 -27.65 0.40 -28 0.35 -0.35 0.50 7.95 0.50 26.95 l0 27.50 1.45 2.65 c0.90 1.60 1.25 2.60 0.85 2.60 -0.35 0 -1.15 -0.95 -1.85 -2.10z"/>
  <path d="M1030.15 138.15 c1.10 -1.90 1.10 -2.15 1.35 -29.15 l0.25 -27.25 0.15 27.40 c0.10 24.40 0 27.65 -0.70 29.15 -0.45 0.95 -1.10 1.70 -1.50 1.70 -0.50 0 -0.35 -0.50 0.45 -1.85z"/>
  <path d="M909 70.50 c0 -0.35 17.85 -0.50 52.50 -0.50 34.65 0 52.50 0.15 52.50 0.50 0 0.35 -17.85 0.50 -52.50 0.50 -34.65 0 -52.50 -0.15 -52.50 -0.50z"/>
 </g>
 <g fill="#274b63">
  <path d="M649.25 686.20 c-4.05 -2.10 -6.50 -5 -7.65 -9 -0.95 -3.25 -0.85 -53.25 0.10 -56.40 1.05 -3.40 3.05 -6.05 6 -7.90 l2.55 -1.65 62.25 0 62.30 0 2.75 1.70 c1.80 1.10 3.40 2.55 4.50 4.25 l1.70 2.55 0.15 28.25 c0.10 18.75 0 28.85 -0.35 30.05 -0.80 2.75 -3.65 6.05 -6.45 7.60 l-2.50 1.35 -61.90 0 c-55.15 0 -62.10 -0.10 -63.45 -0.80z"/>
 </g>
 <g fill="#000000">
  <path d="M307.50 412.95 c0 -4.65 0.05 -5 0.90 -4.65 1 0.55 10.40 0.65 59.20 0.80 19.95 0.10 36.50 0.30 36.70 0.50 0.20 0.25 0.45 2.20 0.60 4.40 l0.25 4 -48.85 0 -48.80 0 0 -5.05z"/>
  <path d="M453.10 414.10 c0.10 -2.15 0.40 -4.15 0.55 -4.45 0.30 -0.45 10.85 -0.60 39 -0.60 21.20 0 39.20 0.10 40 0.30 1.35 0.25 1.35 0.30 1.35 4.45 l0 4.20 -40.55 0 -40.60 0 0.25 -3.90z"/>
  <path d="M588 413.80 c0 -3.05 0.20 -4.25 0.70 -4.45 1 -0.40 62.10 -0.45 65.45 -0.05 l2.85 0.35 0 4.15 0 4.20 -34.50 0 -34.50 0 0 -4.20z"/>
  <path d="M711.65 417.20 c-0.50 -1.30 0.20 -7.30 0.90 -7.75 0.35 -0.20 17.15 -0.40 37.30 -0.45 22.25 0 37.15 -0.20 37.95 -0.50 3.05 -1.20 3.20 -1 3.20 4.50 l0 5 -39.50 0 c-35.40 0 -39.55 -0.10 -39.85 -0.80z"/>
  <path d="M898.60 145.50 c-2.30 -0.95 -5.65 -3.60 -6.80 -5.45 -1.50 -2.40 -2.30 -5.20 -1.75 -6.10 0.30 -0.50 0.45 -0.40 0.45 0.45 0 3.45 4.25 8.60 8.20 9.95 2.40 0.85 6.45 0.90 62.05 0.90 48.50 0 59.95 -0.15 61.80 -0.70 4.20 -1.20 8.10 -5.40 8.90 -9.60 l0.45 -2.20 0.05 2 c0.05 3.05 -2.35 6.85 -5.80 9.15 l-2.80 1.85 -61.80 0.10 c-37.15 0.05 -62.25 -0.10 -62.95 -0.35z"/>
  <path d="M889.50 109.75 c0 -12.90 0.10 -23.30 0.25 -23.15 0.35 0.35 0.35 46 0 46.30 -0.15 0.15 -0.25 -10.25 -0.25 -23.15z"/>
  <path d="M1031.60 82.55 c-0.35 -4.30 -3.10 -8.25 -7.25 -10.25 -2.20 -1.10 -3.35 -1.30 -7.65 -1.35 -2.80 -0.05 -5.40 -0.25 -5.75 -0.50 -0.40 -0.25 1.75 -0.45 5.35 -0.45 5.55 0 6.25 0.10 8.50 1.30 3.20 1.70 4.30 2.75 5.90 5.70 1.05 1.90 1.30 3 1.15 4.60 -0.10 1.20 -0.20 1.60 -0.25 0.95z"/>
  <path d="M889.85 80.65 c0.55 -3.95 3.75 -7.80 7.90 -9.70 1.85 -0.85 3.75 -0.90 26.25 -0.85 l24.25 0.05 -24 0.35 c-23.20 0.35 -24.10 0.40 -26.15 1.45 -4.30 2.20 -7.55 6.25 -7.60 9.45 0 0.60 -0.20 1.10 -0.45 1.10 -0.30 0 -0.35 -0.85 -0.20 -1.85z"/>
 </g>
<g>
   <text fill="#000000" font-family="Arial" x="18.694946%" y="9.952253%" text-anchor="middle" dominant-baseline="central" font-size="37.794765">Words Found: O</text>
   <text fill="#000000" font-family="Arial" x="88.90088%" y="9.966945%" text-anchor="middle" dominant-baseline="central" font-size="31.206512">3:00</text>
   <text fill="#000000" font-family="Arial" x="50.81481%" y="33.902576%" text-anchor="middle" dominant-baseline="central" font-size="114.240524">W O R D</text>
   <text fill="#ffffff" font-family="Arial" x="62.351963%" y="48.555397%" text-anchor="middle" dominant-baseline="central" font-size="25.972242">R</text>
   <text fill="#ffffff" font-family="Arial" x="73.87141%" y="48.53419%" text-anchor="middle" dominant-baseline="central" font-size="29.215017">L</text>
   <text fill="#ffffff" font-family="Arial" x="85.29173%" y="48.540676%" text-anchor="middle" dominant-baseline="central" font-size="27.867622">E</text>
   <text fill="#ffffff" font-family="Arial" x="34.009876%" y="59.989445%" text-anchor="middle" dominant-baseline="central" font-size="30.203548">Delete</text>
   <text fill="#ffffff" font-family="Arial" x="66.00533%" y="59.995857%" text-anchor="middle" dominant-baseline="central" font-size="31.222033">Submit</text>
</g>
</svg>