<svg xmlns="http://www.w3.org/2000/svg" width="927" height="622" viewBox="0 0 927 622" version="1.1"><path d="M 238.139 83.147 C 210.633 91.063, 177.759 157.414, 152.251 256.500 L 149.420 267.500 144.460 270.198 C 129.138 278.534, 107.280 281.612, 95.628 277.075 L 92.755 275.956 95.514 273.400 C 99.924 269.313, 96.990 266.968, 90.545 269.430 C 83.325 272.187, 81.705 278.056, 86.841 282.849 C 95.783 291.193, 116.683 291.895, 137.919 284.565 C 147.031 281.420, 146.469 280.178, 142.979 295.760 C 118.677 404.270, 112.791 508.686, 128.863 546.181 C 130.742 550.564, 131.049 550.814, 133.685 550.107 L 136.500 549.352 136.376 536.926 C 135.557 455.049, 135.492 456.968, 140.561 413.500 C 145.037 375.120, 164.194 271.500, 167.158 269.635 C 194.259 252.580, 222.927 213.870, 240.980 169.951 C 265.443 110.438, 264.304 75.618, 238.139 83.147 M 235.146 99.785 C 220.954 114.327, 205.900 143.667, 191.680 184.500 C 183.507 207.971, 171.502 249.006, 172.198 251.095 C 173.204 254.113, 197.552 226.936, 207.223 212 C 239.596 162.003, 261.899 72.372, 235.146 99.785 M 775.571 184.571 C 774.707 185.436, 774 185.675, 774 185.103 C 774 184.531, 773.328 184.321, 772.506 184.636 C 771.684 184.952, 771.303 185.682, 771.660 186.259 C 772.068 186.919, 771.819 187.006, 770.989 186.493 C 770.112 185.951, 768.848 186.655, 767.225 188.589 C 765.880 190.190, 765.132 190.825, 765.562 190 C 766.075 189.015, 765.598 189.154, 764.172 190.405 C 761.762 192.518, 761.330 193.476, 763.250 192.449 C 763.938 192.081, 763.150 192.939, 761.500 194.354 C 759.850 195.770, 758.837 196.944, 759.250 196.964 C 759.663 196.984, 759.065 197.935, 757.923 199.077 C 756.780 200.220, 756.089 201.789, 756.387 202.565 C 756.688 203.350, 756.390 203.870, 755.714 203.738 C 755.042 203.606, 754.533 204.481, 754.574 205.700 C 754.615 206.910, 754.314 207.694, 753.905 207.441 C 752.750 206.728, 750.860 213.472, 751.643 215.511 C 752.161 216.863, 752 217.118, 751.012 216.508 C 750.017 215.892, 749.826 216.226, 750.249 217.844 C 750.559 219.030, 750.352 220, 749.790 220 C 749.227 220, 748.979 221.111, 749.239 222.470 C 749.499 223.828, 749.377 224.733, 748.969 224.481 C 748.063 223.921, 747.032 227.506, 747.014 231.281 C 747.006 232.852, 747.659 234.316, 748.513 234.643 C 750.210 235.294, 753.042 233.357, 752.921 231.628 C 752.871 230.919, 752.655 230.965, 752.338 231.750 C 751.702 233.326, 749.349 233.374, 748.395 231.830 C 747.915 231.054, 748.208 230.866, 749.263 231.271 C 750.138 231.606, 751.409 231.212, 752.089 230.393 C 753.080 229.198, 753.486 229.161, 754.146 230.203 C 754.786 231.211, 755.001 231.221, 755.110 230.250 C 755.187 229.563, 755.362 228.550, 755.500 228 C 755.638 227.450, 755.806 226.720, 755.875 226.378 C 756.054 225.484, 759 228.071, 759 229.122 C 759 229.605, 758.277 230, 757.393 230 C 756.352 230, 755.996 230.546, 756.382 231.552 C 756.723 232.442, 756.555 232.843, 755.989 232.493 C 755.051 231.913, 754.832 232.347, 754.600 235.250 C 754.545 235.938, 753.903 237.130, 753.172 237.899 C 752.442 238.669, 752.063 240.132, 752.329 241.150 C 752.596 242.169, 752.438 242.771, 751.979 242.487 C 750.850 241.789, 749.688 245.686, 750.590 247.146 C 751 247.809, 750.876 248.041, 750.301 247.686 C 749.746 247.343, 748.754 248.245, 748.095 249.691 C 747.143 251.781, 747.164 252.488, 748.199 253.144 C 749.198 253.778, 749.130 253.973, 747.908 253.985 C 746.917 253.994, 745.853 255.547, 745.087 258.104 C 744.411 260.361, 743.588 262.910, 743.259 263.768 C 742.888 264.734, 743.070 265.075, 743.737 264.663 C 744.428 264.235, 744.618 264.743, 744.268 266.083 C 743.842 267.710, 743.514 267.876, 742.775 266.835 C 742.098 265.882, 741.968 266.144, 742.320 267.750 C 742.591 268.988, 742.375 270, 741.839 270 C 741.301 270, 741.167 270.951, 741.540 272.125 C 741.970 273.480, 741.839 274.018, 741.179 273.611 C 739.799 272.758, 738.704 276.429, 739.498 279.250 C 739.994 281.011, 739.903 281.174, 739.081 280 C 737.984 278.433, 737.986 278.429, 737.600 283.250 C 737.545 283.938, 737.121 284.777, 736.658 285.116 C 736.195 285.454, 735.745 287.546, 735.658 289.763 C 735.571 291.980, 735.097 293.549, 734.604 293.248 C 734.103 292.942, 734.001 293.869, 734.373 295.351 C 734.800 297.052, 734.632 298, 733.902 298 C 733.259 298, 732.994 298.867, 733.290 300.001 C 733.578 301.102, 733.445 301.775, 732.995 301.497 C 732.112 300.951, 730.411 308.380, 730.762 311.250 C 730.880 312.212, 730.475 313, 729.863 313 C 729.160 313, 728.971 314.104, 729.350 316 C 729.708 317.788, 729.532 319, 728.915 319 C 728.326 319, 728.084 320.296, 728.354 322.006 C 728.664 323.977, 728.460 324.785, 727.761 324.353 C 727.032 323.902, 726.906 325.085, 727.362 328.097 C 727.864 331.413, 727.758 332.130, 726.931 331 C 726.089 329.849, 725.956 330.377, 726.358 333.272 C 726.646 335.347, 726.515 336.818, 726.067 336.541 C 724.833 335.779, 722.521 354.273, 722.536 364.784 C 722.544 369.889, 722.234 373.264, 721.849 372.284 C 720.927 369.937, 721.548 399.902, 722.475 402.500 C 723.062 404.144, 722.986 404.233, 722.051 403 C 721.175 401.846, 721.013 402.998, 721.345 408 C 721.583 411.575, 721.967 417.571, 722.198 421.323 C 722.453 425.447, 723.135 428.466, 723.923 428.952 C 724.777 429.480, 724.850 429.886, 724.133 430.129 C 723.453 430.360, 723.270 431.908, 723.648 434.230 C 723.982 436.282, 724.641 437.722, 725.113 437.430 C 725.584 437.139, 725.681 438.343, 725.329 440.106 C 724.932 442.089, 725.060 443.081, 725.663 442.708 C 726.245 442.349, 726.464 443.294, 726.206 445.053 C 725.968 446.674, 726.232 448, 726.793 448 C 727.354 448, 727.559 448.970, 727.249 450.156 C 726.829 451.763, 727.020 452.106, 727.997 451.502 C 728.859 450.969, 729.068 451.081, 728.606 451.828 C 727.566 453.512, 729.021 460.105, 730.264 459.337 C 730.875 458.959, 731.011 459.174, 730.590 459.854 C 729.688 461.314, 730.850 465.211, 731.979 464.513 C 732.438 464.229, 732.560 464.968, 732.249 466.155 C 731.829 467.762, 732.020 468.106, 732.997 467.502 C 733.820 466.993, 734.067 467.083, 733.659 467.742 C 732.784 469.158, 735.409 475.237, 736.477 474.267 C 736.941 473.845, 736.997 474.062, 736.602 474.748 C 735.883 475.998, 738.540 480.795, 739.603 480.167 C 739.913 479.983, 740.467 480.168, 740.833 480.577 C 741.200 480.986, 740.938 480.997, 740.250 480.601 C 739.563 480.206, 739.014 480.246, 739.032 480.691 C 739.083 482.011, 743.811 487, 745.011 487 C 745.620 487, 745.861 487.416, 745.547 487.924 C 744.235 490.047, 756.905 496.482, 760.286 495.409 C 761.584 494.997, 762.018 495.161, 761.566 495.893 C 761.132 496.595, 761.840 497, 763.500 497 C 764.940 497, 765.911 496.663, 765.657 496.250 C 765.404 495.837, 766.595 495.447, 768.304 495.383 C 770.013 495.319, 771.582 494.754, 771.791 494.127 C 772 493.500, 772.608 493.258, 773.143 493.588 C 775.306 494.925, 789.708 482.955, 788.429 480.884 C 788.001 480.193, 788.115 479.953, 788.699 480.314 C 789.253 480.656, 791.207 478.847, 793.041 476.293 C 794.875 473.739, 795.729 472.027, 794.938 472.488 C 794.147 472.950, 794.737 472.150, 796.250 470.711 C 799.147 467.956, 799.854 466.450, 797.750 467.515 C 797.063 467.863, 797.260 467.523, 798.188 466.759 C 799.117 465.995, 800.017 464.761, 800.188 464.018 C 800.360 463.275, 801.304 461.825, 802.286 460.797 C 803.269 459.768, 803.805 458.493, 803.477 457.964 C 803.150 457.434, 803.359 457, 803.941 457 C 804.523 457, 805 456.523, 805 455.941 C 805 455.359, 804.547 455.162, 803.992 455.505 C 803.402 455.869, 803.463 455.078, 804.139 453.595 C 804.773 452.202, 805.630 451.271, 806.041 451.526 C 807.009 452.124, 808.181 449.102, 807.444 447.910 C 807.135 447.409, 807.407 447, 808.048 447 C 808.689 447, 808.955 446.325, 808.638 445.500 C 808.322 444.675, 808.547 444, 809.138 444 C 809.730 444, 809.946 443.302, 809.618 442.448 C 809.291 441.594, 809.424 441.144, 809.914 441.447 C 810.404 441.750, 811.299 440.581, 811.903 438.850 C 813.281 434.897, 813.273 434.743, 811.750 435.515 C 811.063 435.863, 811.328 435.473, 812.341 434.648 C 813.629 433.598, 813.972 432.487, 813.484 430.948 C 812.979 429.359, 813.122 428.957, 814 429.500 C 814.882 430.045, 815.019 429.635, 814.500 428 C 814.059 426.609, 814.162 425.982, 814.771 426.359 C 815.856 427.029, 817.324 421.334, 816.437 419.897 C 816.132 419.404, 816.411 419, 817.058 419 C 817.741 419, 818.014 418.163, 817.711 417.001 C 817.423 415.902, 817.626 414.731, 818.162 414.400 C 818.698 414.069, 818.886 413.145, 818.580 412.347 C 818.227 411.428, 818.443 411.156, 819.169 411.604 C 819.949 412.086, 820.135 411.623, 819.751 410.155 C 819.393 408.787, 819.571 408.235, 820.238 408.647 C 820.914 409.065, 821.109 408.351, 820.784 406.649 C 820.505 405.192, 820.721 404, 821.264 404 C 821.838 404, 821.989 402.641, 821.626 400.750 C 821.153 398.283, 821.262 397.862, 822.076 399 C 822.880 400.123, 822.989 399.532, 822.511 396.652 C 822.031 393.759, 822.175 392.990, 823.092 393.557 C 823.998 394.117, 824.150 393.498, 823.681 391.155 C 823.283 389.167, 823.451 388, 824.134 388 C 824.785 388, 825.055 386.599, 824.810 384.500 C 824.585 382.575, 824.820 381, 825.332 381 C 825.844 381, 826.022 379.200, 825.727 377 C 825.432 374.800, 825.540 373.216, 825.967 373.480 C 826.395 373.744, 826.984 371.832, 827.277 369.231 C 827.619 366.202, 827.395 364.237, 826.655 363.766 C 825.839 363.246, 825.900 363.026, 826.863 363.015 C 827.802 363.005, 828.092 362.082, 827.794 360.053 C 827.557 358.432, 827.730 357.333, 828.181 357.612 C 828.631 357.890, 829 356.265, 829 354 C 829 350.972, 828.669 350.081, 827.750 350.633 C 827.033 351.064, 827.140 350.598, 828 349.540 C 829.639 347.526, 830.914 299.572, 829.419 296.174 C 829.014 295.253, 828.770 294.115, 828.876 293.645 C 828.983 293.174, 828.492 292.089, 827.785 291.232 C 826.765 289.996, 826.758 289.588, 827.750 289.254 C 829.437 288.686, 829.317 285.132, 827.494 281.636 C 825.828 278.442, 825.497 276.674, 827 279 C 827.780 280.207, 827.972 280.049, 827.985 278.191 C 827.993 276.921, 827.639 276.105, 827.197 276.378 C 826.755 276.651, 826.486 275.553, 826.597 273.937 C 826.709 272.322, 826.396 271, 825.900 271 C 825.405 271, 825 270.523, 825 269.941 C 825 269.359, 825.385 269.120, 825.856 269.411 C 826.710 269.939, 826.339 265.836, 825.275 263 C 824.966 262.175, 824.817 260.212, 824.944 258.637 C 825.071 257.062, 824.798 256.006, 824.337 256.290 C 823.877 256.574, 823.430 254.540, 823.344 251.770 C 823.258 249.001, 822.681 246.421, 822.060 246.037 C 821.440 245.654, 821.229 244.567, 821.592 243.622 C 822.007 242.539, 821.557 241.339, 820.375 240.378 C 819.344 239.538, 819.063 239.137, 819.750 239.485 C 821.710 240.478, 821.234 237.236, 819.250 236.080 C 818.288 235.519, 818.035 235.047, 818.689 235.030 C 820.043 234.996, 817.402 225.975, 815.712 224.862 C 815.180 224.511, 815.028 223.764, 815.375 223.202 C 816.289 221.723, 814.980 218.894, 813.738 219.662 C 813.074 220.072, 812.887 219.539, 813.232 218.221 C 813.566 216.944, 813.238 215.922, 812.389 215.596 C 811.625 215.303, 811 214.572, 811 213.972 C 811 213.373, 811.487 213.183, 812.083 213.551 C 812.678 213.919, 812.441 212.821, 811.557 211.110 C 810.672 209.400, 809.484 208, 808.915 208 C 808.347 208, 808.160 207.550, 808.500 207 C 808.840 206.450, 808.615 206, 808 206 C 807.385 206, 807.160 205.550, 807.500 205 C 807.840 204.450, 807.615 204, 807 204 C 806.385 204, 806.110 203.631, 806.389 203.179 C 807.158 201.936, 803.113 195.812, 801.985 196.510 C 801.443 196.844, 801 196.442, 801 195.615 C 801 194.788, 799.987 193.052, 798.750 191.757 C 797.513 190.462, 797.175 190.293, 798 191.382 C 799.490 193.349, 799.482 193.350, 796.853 191.431 C 795.397 190.369, 794.401 189.180, 794.638 188.788 C 795.261 187.763, 787.828 184.215, 785.750 184.545 C 784.788 184.698, 784 184.413, 784 183.912 C 784 182.373, 777.241 182.902, 775.571 184.571 M 708 186.689 C 705.570 187.616, 703.004 190.198, 703.583 191.134 C 703.877 191.610, 703.672 192, 703.126 192 C 702.102 192, 700.432 195.866, 700.827 197.324 C 700.949 197.778, 700.641 197.896, 700.141 197.587 C 699.344 197.095, 696.622 202.019, 696.896 203.457 C 696.953 203.756, 696.065 204.935, 694.923 206.077 C 693.780 207.220, 693.100 208.818, 693.411 209.629 C 693.729 210.458, 693.544 210.836, 692.989 210.493 C 692.128 209.961, 691.526 212.001, 691.882 214.250 C 691.947 214.662, 691.662 214.887, 691.250 214.750 C 690.837 214.612, 690.404 214.854, 690.286 215.286 C 690.168 215.718, 689.376 216.767, 688.527 217.616 C 687.677 218.466, 687.237 219.575, 687.550 220.081 C 687.862 220.586, 687.615 221, 687 221 C 686.385 221, 686.158 221.446, 686.495 221.992 C 686.832 222.538, 686.648 223.775, 686.085 224.742 C 685.521 225.709, 685.044 226.050, 685.024 225.500 C 685.003 224.950, 684.067 225.850, 682.942 227.500 C 679.884 231.988, 675.866 240, 676.674 240 C 677.064 240, 676.553 240.607, 675.538 241.348 C 674.524 242.090, 674.015 243.215, 674.406 243.848 C 674.842 244.554, 674.417 245.006, 673.309 245.015 C 671.913 245.027, 671.810 245.227, 672.857 245.890 C 673.803 246.490, 673.878 246.957, 673.107 247.434 C 672.498 247.810, 671.986 247.754, 671.970 247.309 C 671.953 246.864, 671.479 247.291, 670.915 248.258 C 670.352 249.225, 670.211 250.532, 670.600 251.162 C 671.070 251.922, 670.863 252.033, 669.985 251.490 C 669.028 250.899, 668.834 251.125, 669.286 252.304 C 669.631 253.202, 669.413 254.245, 668.802 254.622 C 668.082 255.067, 667.976 254.848, 668.500 254 C 669.051 253.108, 668.920 252.932, 668.086 253.447 C 667.414 253.862, 667.114 254.855, 667.420 255.653 C 667.727 256.451, 667.555 256.843, 667.039 256.524 C 666.523 256.205, 665.628 256.827, 665.050 257.906 C 663.685 260.457, 663.720 261.291, 665.155 260.405 C 665.876 259.959, 666.037 260.131, 665.585 260.862 C 665.187 261.506, 664.366 261.726, 663.761 261.352 C 663.046 260.910, 662.891 261.273, 663.319 262.388 C 663.691 263.357, 663.569 263.852, 663.039 263.524 C 661.768 262.739, 659.729 266.730, 660.614 268.271 C 661.003 268.947, 660.937 269.151, 660.468 268.724 C 659.326 267.685, 651.724 279.744, 652.613 281.182 C 653.070 281.922, 652.854 282.028, 651.985 281.490 C 651.015 280.891, 650.836 281.132, 651.319 282.388 C 651.681 283.332, 651.571 283.853, 651.074 283.546 C 649.974 282.866, 645.405 289.994, 645.807 291.763 C 645.965 292.458, 645.435 293.280, 644.630 293.588 C 643.825 293.897, 641.927 296.029, 640.413 298.325 C 638.584 301.099, 638.279 301.997, 639.505 301 C 641.292 299.546, 641.294 299.585, 639.560 302.250 C 637.758 305.018, 636.326 306.075, 637.528 303.750 C 637.883 303.063, 637.242 303.625, 636.105 305 C 634.967 306.375, 634.276 308.161, 634.571 308.970 C 634.865 309.778, 634.786 310.119, 634.395 309.728 C 633.580 308.913, 631 310.777, 631 312.181 C 631 312.697, 631.520 312.797, 632.155 312.405 C 632.870 311.962, 633.038 312.130, 632.595 312.845 C 632.203 313.480, 631.260 314, 630.500 314 C 629.740 314, 628.797 314.520, 628.405 315.155 C 627.962 315.870, 628.130 316.038, 628.845 315.595 C 629.480 315.203, 630 315.359, 630 315.941 C 630 316.523, 629.341 317, 628.535 317 C 627.730 317, 626.560 317.954, 625.935 319.121 C 625.016 320.839, 625.057 321.087, 626.150 320.429 C 627.269 319.755, 627.277 319.892, 626.195 321.227 C 625.396 322.213, 625.008 324.795, 625.195 327.882 L 625.500 332.925 629.750 328.755 C 632.087 326.461, 633.986 324.115, 633.968 323.542 C 633.951 322.969, 633.276 323.374, 632.468 324.441 C 631.661 325.509, 631 325.873, 631 325.250 C 631 324.216, 632.788 322.576, 634 322.499 C 635.295 322.416, 638.852 318.527, 638.074 318.046 C 637.588 317.745, 638.336 316.150, 639.738 314.500 L 642.285 311.500 640.575 314.500 C 638.959 317.335, 639.033 317.307, 641.910 314 C 643.584 312.075, 644.716 309.839, 644.424 309.030 C 644.133 308.222, 644.214 307.881, 644.605 308.272 C 645.420 309.087, 648 307.223, 648 305.819 C 648 305.303, 647.480 305.203, 646.845 305.595 C 646.108 306.051, 645.963 305.868, 646.446 305.088 C 646.861 304.416, 647.440 304.107, 647.733 304.400 C 648.667 305.334, 652.160 300.068, 651.410 298.855 C 650.979 298.157, 651.125 297.959, 651.777 298.362 C 652.944 299.083, 656.217 295.160, 655.464 293.942 C 655.215 293.539, 655.676 292.954, 656.489 292.643 C 657.348 292.313, 657.713 291.415, 657.360 290.497 C 656.970 289.478, 657.242 289.021, 658.127 289.209 C 658.904 289.374, 659.442 288.757, 659.368 287.789 C 659.295 286.848, 659.520 286.173, 659.868 286.289 C 660.215 286.405, 660.680 286.050, 660.901 285.500 C 661.121 284.950, 662.021 283.904, 662.901 283.176 C 663.780 282.448, 663.879 282.173, 663.120 282.565 C 662.260 283.010, 661.893 282.822, 662.145 282.064 C 662.368 281.396, 662.868 280.996, 663.256 281.175 C 664.305 281.658, 667.208 277.146, 666.542 276.067 C 666.226 275.556, 666.494 274.813, 667.138 274.415 C 667.869 273.963, 668.041 274.124, 667.595 274.845 C 667.203 275.480, 667.089 276, 667.342 276 C 668.153 276, 672.101 268.767, 671.576 268.242 C 670.758 267.424, 673.017 263.892, 673.978 264.487 C 674.857 265.030, 676.593 261.227, 676.173 259.676 C 676.051 259.222, 676.329 259.085, 676.792 259.371 C 677.254 259.657, 678.474 258.453, 679.503 256.696 C 680.875 254.351, 680.978 253.766, 679.889 254.500 C 679.073 255.050, 679.264 254.713, 680.314 253.750 C 681.363 252.787, 681.861 252, 681.420 252 C 680.979 252, 681.447 251.393, 682.462 250.652 C 683.623 249.803, 684.007 248.820, 683.498 247.997 C 682.928 247.074, 683.079 246.931, 684.015 247.510 C 684.969 248.099, 685.166 247.876, 684.721 246.715 C 684.286 245.582, 684.533 245.267, 685.551 245.658 C 686.348 245.964, 687 246.867, 687 247.666 C 687 248.511, 686.516 248.819, 685.842 248.403 C 685.049 247.912, 684.862 248.366, 685.249 249.844 C 685.559 251.030, 685.385 252, 684.863 252 C 684.340 252, 684.026 252.563, 684.166 253.250 C 684.305 253.938, 683.835 255.559, 683.120 256.852 C 682.405 258.146, 682.044 260.058, 682.316 261.102 C 682.589 262.146, 682.413 263, 681.925 263 C 681.130 263, 680.451 264.762, 679.591 269.059 C 679.432 269.851, 678.961 271.288, 678.544 272.250 C 678.127 273.212, 678.054 274.698, 678.382 275.552 C 678.755 276.525, 678.568 276.851, 677.881 276.427 C 677.150 275.975, 677.010 276.456, 677.460 277.875 C 677.889 279.225, 677.703 280, 676.951 280 C 676.259 280, 675.984 280.832, 676.290 282 C 676.577 283.100, 676.352 284, 675.790 284 C 675.227 284, 675.002 284.901, 675.290 286.001 C 675.578 287.102, 675.405 287.751, 674.907 287.442 C 674.408 287.134, 674 287.322, 674 287.859 C 674 288.397, 673.699 289.622, 673.330 290.582 C 672.821 291.908, 673.001 292.122, 674.080 291.472 C 675.246 290.769, 675.278 290.890, 674.259 292.150 C 673.576 292.994, 673.351 294.052, 673.759 294.502 C 674.166 294.952, 673.938 294.997, 673.250 294.601 C 672.416 294.121, 671.949 294.650, 671.848 296.191 C 671.603 299.899, 671.490 300.432, 670.665 301.750 C 670.234 302.438, 670.160 303.450, 670.500 304 C 670.840 304.550, 670.590 305, 669.946 305 C 669.216 305, 668.937 306.114, 669.206 307.947 C 669.443 309.568, 669.319 310.697, 668.929 310.456 C 668.539 310.215, 667.914 311.701, 667.540 313.759 C 667.166 315.816, 666.278 319.300, 665.565 321.500 C 663.142 328.982, 662.798 331.241, 664.210 330.392 C 665.205 329.793, 665.195 329.993, 664.164 331.264 C 663.429 332.171, 663.161 333.452, 663.568 334.111 C 664.059 334.905, 663.884 335.046, 663.047 334.529 C 662.119 333.956, 661.964 334.312, 662.460 335.875 C 662.887 337.219, 662.703 338, 661.959 338 C 661.204 338, 661.008 338.895, 661.411 340.500 C 661.804 342.067, 661.614 343, 660.902 343 C 660.234 343, 659.961 344.016, 660.239 345.470 C 660.525 346.966, 660.316 347.696, 659.710 347.321 C 659.079 346.931, 658.955 347.684, 659.373 349.351 C 659.800 351.052, 659.632 352, 658.902 352 C 658.234 352, 657.961 353.016, 658.239 354.470 C 658.525 355.966, 658.316 356.696, 657.710 356.321 C 657.075 355.928, 656.962 356.714, 657.403 358.468 C 657.890 360.412, 657.600 361.785, 656.425 363.083 C 655.415 364.199, 654.943 365.921, 655.232 367.435 C 655.511 368.894, 655.309 369.691, 654.749 369.345 C 654.155 368.977, 654.059 369.994, 654.500 372 C 655.047 374.490, 654.918 375.068, 653.951 374.470 C 652.985 373.873, 652.828 374.554, 653.285 377.367 C 653.697 379.906, 653.542 380.835, 652.785 380.367 C 652.030 379.901, 651.888 380.689, 652.329 382.894 C 652.777 385.135, 652.633 385.891, 651.851 385.408 C 651.084 384.934, 650.876 385.705, 651.192 387.858 C 651.446 389.586, 651.347 391, 650.973 391 C 649.847 391, 647.966 404.579, 648.631 407.906 C 649.067 410.087, 648.869 411, 647.958 411 C 647.248 411, 646.963 411.296, 647.325 411.658 C 647.687 412.020, 647.481 412.921, 646.867 413.660 C 646.250 414.404, 646.019 416.345, 646.350 418.002 C 646.712 419.812, 646.533 421, 645.898 421 C 645.320 421, 644.944 422.462, 645.062 424.250 C 645.180 426.038, 644.943 428.284, 644.534 429.243 C 644.126 430.201, 644.066 433.351, 644.401 436.243 C 644.856 440.161, 644.734 441.118, 643.923 440 C 643.116 438.886, 642.980 440.087, 643.395 444.674 C 643.702 448.070, 643.568 450.995, 643.097 451.174 C 642.626 451.353, 642.055 454.506, 641.827 458.181 C 641.600 461.856, 641.771 464.642, 642.207 464.372 C 642.643 464.103, 643 464.584, 643 465.441 C 643 466.298, 642.550 467, 642 467 C 641.378 467, 641 472.686, 641 482.059 C 641 491.844, 641.350 496.902, 642 496.500 C 642.550 496.160, 643 496.546, 643 497.358 C 643 498.169, 642.620 498.983, 642.156 499.167 C 641.692 499.350, 641.515 501.184, 641.764 503.242 C 642.013 505.300, 642.524 506.794, 642.899 506.562 C 643.275 506.330, 643.402 507.684, 643.182 509.570 C 642.961 511.462, 643.231 513, 643.784 513 C 644.335 513, 645.054 513.698, 645.382 514.552 C 645.723 515.442, 645.555 515.843, 644.989 515.493 C 644.445 515.157, 644 515.359, 644 515.941 C 644 516.523, 644.525 517, 645.167 517 C 645.808 517, 646.045 517.288, 645.693 517.640 C 644.840 518.494, 651.247 521.923, 652.405 521.231 C 652.902 520.934, 652.988 521.211, 652.595 521.845 C 651.548 523.540, 654.529 523.273, 655.964 521.544 C 656.628 520.743, 656.839 519.548, 656.432 518.889 C 655.989 518.174, 656.114 517.952, 656.741 518.340 C 658.090 519.174, 659.130 516.501, 658.299 514.336 C 657.837 513.132, 658.024 512.897, 658.976 513.485 C 659.994 514.114, 660.137 513.680, 659.606 511.565 C 659.204 509.966, 659.304 509.070, 659.846 509.405 C 660.356 509.720, 661.043 508.970, 661.373 507.739 C 662.257 504.440, 662.101 503.296, 661 505 C 660.172 506.282, 660.028 506.246, 660.015 504.750 C 660.007 503.788, 660.450 503, 661 503 C 661.550 503, 662 502.100, 662 501 C 662 499.900, 661.550 499, 661 499 C 660.450 499, 660 498.073, 660 496.941 C 660 495.809, 659.550 495.160, 659 495.500 C 657.776 496.257, 657.708 494.009, 658.898 492.130 C 659.599 491.024, 659.976 491.120, 660.853 492.630 C 662.128 494.824, 662.556 491.613, 661.393 488.582 C 659.824 484.493, 656.506 491.823, 657.609 496.939 C 658.005 498.773, 657.886 499.107, 657.190 498.117 C 656.450 497.065, 656.031 497.544, 655.439 500.117 C 654.682 503.406, 654.641 503.431, 653.930 501 C 653.299 498.842, 653.186 499.022, 653.100 502.309 C 653.039 504.615, 653.395 505.874, 654 505.500 C 654.550 505.160, 655 505.782, 655 506.882 C 655 507.982, 654.555 509.157, 654.011 509.493 C 653.424 509.856, 653.290 509.407, 653.681 508.388 C 654.128 507.224, 653.964 506.904, 653.170 507.395 C 652.330 507.914, 652 506.535, 652 502.500 C 652 499.009, 652.379 497.116, 653 497.500 C 653.592 497.866, 654 496.724, 654 494.699 C 654 492.818, 654.296 489.121, 654.657 486.483 C 655.079 483.410, 654.959 481.907, 654.324 482.300 C 653.779 482.637, 653.333 482.257, 653.333 481.456 C 653.333 480.655, 653.682 480, 654.109 480 C 654.536 480, 654.712 479.100, 654.500 478 C 654.288 476.900, 654.573 476, 655.134 476 C 655.694 476, 656.030 474.300, 655.880 472.222 C 655.730 470.144, 655.936 467.912, 656.338 467.263 C 656.739 466.613, 657.078 464.600, 657.090 462.790 C 657.125 457.301, 657.746 451.601, 658.512 449.719 C 658.911 448.740, 658.970 446.602, 658.644 444.969 C 658.317 443.336, 658.440 442, 658.916 442 C 659.392 442, 659.961 440.457, 660.182 438.570 C 660.402 436.684, 660.226 435.360, 659.791 435.629 C 659.356 435.898, 659 435.641, 659 435.059 C 659 434.477, 659.375 434, 659.833 434 C 660.292 434, 660.709 433.438, 660.761 432.750 C 660.813 432.063, 661.184 430.417, 661.585 429.094 C 662.150 427.232, 662.014 426.874, 660.985 427.509 C 660.150 428.025, 660.278 427.441, 661.327 425.943 C 663.216 423.246, 663.569 420.530, 661.896 421.564 C 661.289 421.939, 661.566 421.065, 662.512 419.621 C 663.458 418.178, 663.997 416.098, 663.710 414.999 C 663.423 413.901, 663.596 412.750, 664.094 412.442 C 664.592 412.134, 664.993 411.121, 664.985 410.191 C 664.971 408.734, 664.835 408.707, 664 410 C 663.467 410.825, 663.024 411.038, 663.015 410.473 C 663.007 409.907, 663.708 408.434, 664.574 407.198 C 665.651 405.660, 665.933 403.972, 665.467 401.850 C 664.948 399.489, 665.087 398.936, 666.049 399.530 C 667.008 400.123, 667.160 399.552, 666.681 397.155 C 666.279 395.145, 666.449 394, 667.150 394 C 667.852 394, 668.025 392.825, 667.626 390.750 C 667.183 388.439, 667.287 387.933, 667.986 389 C 668.790 390.227, 668.972 390.105, 668.985 388.332 C 668.993 387.139, 669.301 385.378, 669.670 384.418 C 670.152 383.162, 669.982 382.893, 669.066 383.459 C 668.310 383.926, 668.466 383.218, 669.451 381.716 C 670.617 379.936, 670.777 378.980, 669.989 378.493 C 669.213 378.014, 669.388 377.228, 670.560 375.934 C 671.527 374.866, 672.023 373.195, 671.719 372.033 C 671.426 370.915, 671.645 370, 672.205 370 C 672.832 370, 672.963 368.618, 672.548 366.402 C 672.040 363.697, 672.176 362.991, 673.094 363.558 C 673.963 364.095, 674.152 363.691, 673.751 362.157 C 673.441 360.972, 673.632 359.727, 674.175 359.392 C 674.718 359.056, 674.892 357.706, 674.562 356.391 C 674.193 354.921, 674.399 354, 675.098 354 C 675.770 354, 676.038 352.980, 675.755 351.500 C 675.492 350.125, 675.717 349, 676.255 349 C 676.793 349, 677.021 347.889, 676.761 346.530 C 676.501 345.172, 676.636 344.275, 677.060 344.537 C 678.006 345.122, 680.238 335.195, 679.448 333.916 C 679.137 333.412, 679.394 333, 680.020 333 C 680.775 333, 680.928 331.947, 680.473 329.875 C 680.072 328.050, 680.168 326.986, 680.705 327.318 C 681.776 327.980, 684.380 316.423, 683.485 314.976 C 683.153 314.439, 683.411 314, 684.058 314 C 684.741 314, 685.014 313.162, 684.710 311.999 C 684.380 310.738, 684.581 310.241, 685.251 310.655 C 685.933 311.076, 686.112 310.538, 685.751 309.156 C 685.441 307.970, 685.631 307, 686.173 307 C 686.750 307, 686.893 305.652, 686.519 303.750 C 686.015 301.191, 686.121 300.819, 687.020 302 C 687.930 303.195, 688.035 302.924, 687.541 300.666 C 687.093 298.621, 687.250 298.036, 688.106 298.565 C 688.965 299.097, 689.103 298.546, 688.606 296.565 C 688.109 294.586, 688.247 294.034, 689.105 294.565 C 689.943 295.083, 690.143 294.530, 689.789 292.679 C 689.479 291.057, 689.674 290.299, 690.302 290.687 C 690.923 291.070, 691.097 290.478, 690.751 289.156 C 690.441 287.970, 690.648 287, 691.210 287 C 691.773 287, 692.004 286.122, 691.723 285.048 C 691.442 283.974, 691.626 282.958, 692.132 282.789 C 692.638 282.621, 693.194 280.903, 693.367 278.972 C 693.541 277.042, 694.249 274.404, 694.941 273.110 C 695.732 271.633, 695.791 271.011, 695.100 271.438 C 694.495 271.812, 694 271.627, 694 271.028 C 694 270.428, 694.711 269.664, 695.581 269.331 C 696.529 268.967, 696.966 267.979, 696.674 266.862 C 696.406 265.838, 696.648 265, 697.210 265 C 697.773 265, 698.004 264.122, 697.723 263.048 C 697.442 261.974, 697.599 260.962, 698.072 260.798 C 698.545 260.634, 699.059 258.925, 699.216 257 C 699.372 255.075, 699.753 253.275, 700.062 253 C 700.372 252.725, 701.452 249.800, 702.462 246.500 C 703.473 243.200, 704.534 239.864, 704.820 239.086 C 705.147 238.196, 704.911 237.937, 704.181 238.388 C 703.425 238.856, 703.229 238.566, 703.618 237.552 C 703.946 236.698, 704.616 236, 705.107 236 C 705.598 236, 706 235.523, 706 234.941 C 706 234.359, 705.555 234.157, 705.011 234.493 C 704.445 234.843, 704.277 234.442, 704.618 233.552 C 704.946 232.698, 705.646 232, 706.174 232 C 706.703 232, 706.831 231.044, 706.460 229.875 C 705.963 228.309, 706.119 227.955, 707.050 228.531 C 707.971 229.100, 708.162 228.726, 707.751 227.156 C 707.441 225.970, 707.648 225, 708.210 225 C 708.773 225, 708.998 224.100, 708.710 223 C 708.423 221.900, 708.648 221, 709.210 221 C 709.773 221, 709.998 220.099, 709.710 218.998 C 709.386 217.760, 709.819 216.626, 710.843 216.028 C 712.206 215.233, 712.234 215.053, 711 215.015 C 709.667 214.974, 709.667 214.862, 711 214 C 711.825 213.467, 712.050 213.017, 711.500 213 C 710.950 212.983, 711.153 212.557, 711.950 212.052 C 712.831 211.495, 713.359 209.673, 713.295 207.411 C 713.218 204.699, 713.457 204.070, 714.175 205.094 C 714.877 206.094, 714.983 205.682, 714.541 203.666 C 714.086 201.592, 714.244 201.033, 715.130 201.580 C 715.962 202.094, 716.140 201.808, 715.701 200.664 C 715.350 199.749, 715.499 199, 716.031 199 C 717.446 199, 717.217 190.666, 715.750 188.746 C 714.344 186.905, 710.268 185.823, 708 186.689 M 775.572 202.673 C 775.265 203.473, 774.612 203.878, 774.120 203.574 C 773.629 203.271, 772.613 203.778, 771.863 204.703 C 770.693 206.146, 770.712 206.276, 772 205.618 C 772.868 205.175, 772.762 205.456, 771.750 206.286 C 770.788 207.075, 770 208.027, 770 208.401 C 770 209.978, 765.599 214.870, 764.686 214.306 C 764.107 213.948, 764.007 214.202, 764.447 214.914 C 764.862 215.586, 765.809 215.904, 766.550 215.619 C 767.374 215.303, 767.701 215.615, 767.392 216.422 C 766.889 217.732, 769.807 219.527, 770.810 218.524 C 771.098 218.236, 770.808 218, 770.167 218 C 769.525 218, 769 217.495, 769 216.878 C 769 216.102, 769.464 216.140, 770.500 217 C 772.169 218.385, 772.570 224, 771 224 C 770.450 224, 770 223.325, 770 222.500 C 770 221.257, 769.684 221.300, 768.159 222.750 C 765.942 224.857, 766.437 226.313, 769.084 225.473 C 771.449 224.723, 771.446 224.974, 768.967 233 C 766.075 242.366, 766.039 242.442, 765.039 241.417 C 764.511 240.877, 764.520 238.505, 765.061 235.643 C 766.005 230.651, 764.964 226.045, 763.660 229.442 C 763.235 230.551, 763.408 230.866, 764.181 230.388 C 764.966 229.903, 765.124 230.235, 764.670 231.418 C 764.301 232.378, 764 233.603, 764 234.141 C 764 234.678, 763.581 234.859, 763.069 234.543 C 762.557 234.226, 761.856 234.425, 761.510 234.984 C 761.165 235.543, 761.359 236, 761.941 236 C 762.523 236, 763 236.450, 763 237 C 763 237.550, 762.438 237.887, 761.750 237.750 C 761.063 237.612, 760.435 238.400, 760.356 239.500 C 760.277 240.600, 760.165 242.314, 760.106 243.309 C 760.042 244.408, 759.547 244.838, 758.845 244.405 C 758.170 243.987, 757.961 244.128, 758.341 244.743 C 759.326 246.336, 757.918 252.068, 756.724 251.329 C 756.143 250.970, 755.991 251.176, 756.376 251.800 C 757.247 253.208, 756.052 258.150, 754.998 257.499 C 754.564 257.231, 753.943 257.707, 753.616 258.558 C 753.276 259.443, 753.445 259.843, 754.011 259.493 C 755.358 258.661, 755.268 259.475, 753.332 265.617 C 752.414 268.528, 751.241 270.649, 750.724 270.330 C 750.179 269.993, 750.068 270.640, 750.460 271.875 C 750.831 273.044, 750.717 274, 750.206 274 C 749.695 274, 749.505 275.192, 749.784 276.649 C 750.094 278.273, 749.903 279.058, 749.289 278.679 C 748.687 278.306, 748.436 279.141, 748.658 280.780 C 748.961 283.006, 748.872 283.142, 748.173 281.528 C 747.392 279.727, 747.273 279.789, 746.803 282.248 C 746.483 283.923, 746.671 284.703, 747.302 284.313 C 747.939 283.920, 748.076 284.580, 747.671 286.094 C 747.317 287.417, 747.021 289.089, 747.014 289.809 C 747.006 290.529, 746.527 290.825, 745.948 290.468 C 745.309 290.073, 744.977 290.737, 745.103 292.159 C 745.485 296.465, 745.009 300.124, 744.136 299.584 C 743.661 299.291, 743.273 300.931, 743.273 303.230 C 743.273 305.528, 742.841 307.553, 742.313 307.729 C 741.785 307.905, 741.559 309.452, 741.811 311.166 C 742.114 313.229, 741.905 314.059, 741.194 313.620 C 740.464 313.168, 740.310 314.136, 740.715 316.633 C 741.127 319.172, 740.973 320.101, 740.215 319.633 C 739.458 319.165, 739.303 320.094, 739.715 322.633 C 740.151 325.319, 739.994 326.114, 739.132 325.582 C 738.263 325.045, 738.112 325.991, 738.557 329.176 C 739.005 332.382, 738.886 333.112, 738.096 332 C 737.196 330.733, 737.026 330.811, 737.002 332.500 C 736.986 333.600, 736.715 335.625, 736.400 337 C 735.931 339.045, 736.039 339.227, 736.997 338 C 737.934 336.800, 738.051 337.176, 737.584 339.875 C 737.263 341.731, 736.993 344.206, 736.985 345.375 C 736.972 347.114, 736.793 347.227, 736 346 C 735.418 345.099, 735.025 344.975, 735.015 345.691 C 735.007 346.346, 735.407 347.134, 735.905 347.441 C 737.038 348.142, 736.046 356.274, 734.722 357.138 C 734.184 357.489, 734.091 358.338, 734.514 359.023 C 734.938 359.709, 735.224 369.772, 735.150 381.385 C 735.075 392.998, 735.383 406.325, 735.833 411 C 736.283 415.675, 736.280 419.650, 735.826 419.833 C 735.372 420.017, 735 420.606, 735 421.142 C 735 421.679, 735.450 421.840, 736 421.500 C 736.550 421.160, 737.079 421.809, 737.175 422.941 C 737.271 424.073, 737.518 426.238, 737.723 427.750 C 737.928 429.262, 738.245 431.850, 738.428 433.500 C 738.610 435.150, 739.090 437.294, 739.493 438.265 C 739.896 439.236, 739.992 440.924, 739.706 442.016 C 739.420 443.109, 739.595 443.751, 740.093 443.442 C 740.927 442.927, 741.190 443.983, 741.417 448.750 C 741.462 449.712, 741.881 450.779, 742.348 451.119 C 742.814 451.460, 743.264 452.879, 743.348 454.273 C 743.431 455.667, 743.886 456.570, 744.357 456.279 C 744.829 455.988, 744.910 456.708, 744.538 457.880 C 744.064 459.374, 744.355 460.199, 745.512 460.643 C 746.521 461.030, 746.972 461.998, 746.674 463.139 C 746.369 464.304, 746.590 464.753, 747.263 464.337 C 747.951 463.912, 748.102 464.292, 747.681 465.388 C 747.290 466.407, 747.424 466.856, 748.011 466.493 C 748.555 466.157, 749 466.359, 749 466.941 C 749 468.894, 749.293 469.493, 750.901 470.824 C 752.103 471.820, 752.128 471.954, 751 471.366 C 750.175 470.936, 751.525 472.591, 754 475.044 C 756.475 477.496, 759.136 479.314, 759.914 479.082 C 760.794 478.819, 761.055 479.102, 760.605 479.830 C 760.142 480.579, 760.624 481, 761.941 481 C 763.073 481, 764 480.502, 764 479.893 C 764 479.284, 764.675 479.045, 765.500 479.362 C 766.325 479.678, 767 479.475, 767 478.910 C 767 478.344, 767.337 478.036, 767.750 478.223 C 768.163 478.411, 770.525 476.552, 773 474.093 C 775.475 471.634, 776.825 469.968, 776 470.392 C 775.175 470.815, 775.764 469.999, 777.308 468.579 C 778.902 467.113, 779.808 465.498, 779.403 464.844 C 778.974 464.149, 779.130 463.962, 779.795 464.373 C 780.403 464.749, 781.417 464.089, 782.050 462.907 C 782.937 461.250, 782.925 460.929, 781.996 461.502 C 780.698 462.305, 783.889 456.903, 785.312 455.888 C 785.784 455.552, 786.132 454.989, 786.085 454.638 C 785.769 452.274, 786.143 450.971, 786.989 451.493 C 787.576 451.856, 787.710 451.407, 787.319 450.388 C 786.836 449.132, 787.015 448.891, 787.985 449.490 C 788.814 450.003, 789.069 449.920, 788.666 449.269 C 787.763 447.808, 789.986 441.873, 791.164 442.602 C 791.698 442.931, 792.014 442.593, 791.867 441.850 C 791.422 439.606, 793.025 433, 794.014 433 C 794.522 433, 794.678 432.325, 794.362 431.500 C 794.045 430.675, 794.236 430, 794.786 430 C 795.336 430, 796.054 429.302, 796.382 428.448 C 796.784 427.400, 796.575 427.131, 795.739 427.620 C 795.057 428.018, 795.342 427.383, 796.371 426.209 C 797.432 425, 797.974 423.374, 797.622 422.458 C 796.869 420.496, 797.915 415.829, 798.962 416.477 C 799.374 416.731, 799.499 415.828, 799.239 414.470 C 798.979 413.111, 799.207 412, 799.745 412 C 800.283 412, 800.495 410.808, 800.216 409.351 C 799.918 407.789, 800.105 406.947, 800.674 407.299 C 801.247 407.652, 801.454 406.639, 801.185 404.805 C 800.863 402.612, 801.072 401.926, 801.906 402.442 C 802.727 402.950, 802.909 402.467, 802.509 400.834 C 802.195 399.550, 802.427 396.250, 803.024 393.500 C 803.621 390.750, 804.071 387.038, 804.023 385.250 C 803.976 383.462, 804.428 382, 805.028 382 C 805.627 382, 805.809 381.500, 805.431 380.888 C 805.053 380.277, 805.364 379.384, 806.122 378.904 C 807.120 378.271, 807.155 378.026, 806.250 378.015 C 805.563 378.007, 805 377.073, 805 375.941 C 805 374.690, 805.435 374.151, 806.107 374.566 C 806.845 375.022, 806.998 374.570, 806.566 373.209 C 806.210 372.087, 806.387 370.879, 806.959 370.525 C 807.532 370.171, 808 369.432, 808 368.882 C 808 368.332, 807.523 368.177, 806.939 368.537 C 805.805 369.239, 806.740 356.952, 807.894 356 C 808.703 355.333, 808.678 301.080, 807.869 301.581 C 807.522 301.795, 807.028 299.165, 806.772 295.735 C 806.515 292.306, 806.687 289.350, 807.153 289.167 C 807.619 288.983, 808 288.394, 808 287.858 C 808 287.321, 807.479 287.204, 806.842 287.597 C 806.049 288.087, 805.862 287.634, 806.249 286.157 C 806.559 284.972, 806.404 283.750, 805.906 283.442 C 805.408 283.134, 805 281.532, 805 279.882 C 805 277.949, 805.392 277.125, 806.104 277.564 C 806.711 277.939, 806.449 277.089, 805.523 275.675 C 804.596 274.261, 803.939 271.843, 804.063 270.302 C 804.186 268.761, 803.946 266.705, 803.530 265.733 C 803.114 264.762, 802.987 262.849, 803.248 261.483 C 803.509 260.117, 803.315 259, 802.816 259 C 802.315 259, 802.215 257.371, 802.593 255.355 C 803.037 252.987, 802.922 251.930, 802.263 252.337 C 801.142 253.030, 799.589 245.473, 800.537 243.939 C 800.857 243.423, 800.589 243, 799.942 243 C 799.232 243, 798.953 242.024, 799.239 240.530 C 799.499 239.172, 799.326 238.298, 798.856 238.589 C 798.385 238.880, 798 238.678, 798 238.141 C 798 237.603, 797.699 236.378, 797.330 235.418 C 796.832 234.121, 797.025 233.862, 798.080 234.410 C 798.928 234.851, 798.854 234.613, 797.896 233.820 C 797.013 233.090, 795.971 231.369, 795.580 229.996 C 795.039 228.097, 795.120 227.859, 795.919 229 C 796.497 229.825, 796.976 229.993, 796.985 229.372 C 796.993 228.752, 796.352 227.707, 795.559 227.049 C 794.767 226.392, 794.365 225.212, 794.666 224.427 C 794.968 223.642, 794.668 223, 794 223 C 793.332 223, 793.045 222.326, 793.362 221.500 C 793.678 220.675, 793.475 220, 792.910 220 C 792.344 220, 792.160 219.550, 792.500 219 C 792.840 218.450, 792.593 218, 791.952 218 C 791.309 218, 791.053 217.304, 791.382 216.448 C 791.771 215.434, 791.575 215.144, 790.819 215.612 C 790.038 216.095, 789.875 215.769, 790.319 214.612 C 790.681 213.668, 790.579 213.142, 790.093 213.442 C 789.027 214.101, 787.762 211.194, 788.556 209.910 C 788.865 209.409, 788.416 209, 787.559 209 C 786.085 209, 785.512 207.743, 785.965 205.500 C 786.076 204.950, 785.833 204.834, 785.425 205.241 C 784.386 206.280, 781.881 204.002, 782.666 202.732 C 783.039 202.128, 782.825 201.990, 782.155 202.405 C 781.520 202.797, 781 202.754, 780.999 202.309 C 780.998 200.855, 776.145 201.181, 775.572 202.673 M 247.500 256.817 C 188.988 281.757, 146.326 444.748, 186.127 491.290 C 209.812 518.984, 247.742 487.686, 259.507 430.741 C 261.508 421.056, 261.412 420.608, 257.554 421.576 C 255.222 422.161, 253.386 425.271, 243.505 445.375 C 211.934 509.606, 180.529 493.918, 186.519 416.908 L 187.187 408.315 193.156 403.969 C 247.387 364.477, 294.553 236.761, 247.500 256.817 M 531 261.732 C 523.183 263.169, 513.100 288.248, 505.491 325.182 C 503.880 332.999, 501.714 339.781, 498.943 345.682 C 496.665 350.532, 488.545 367.902, 480.898 384.282 C 456.610 436.302, 446.820 453.061, 442.383 450.210 C 436.602 446.494, 432.553 423.814, 432.527 395 L 432.509 375.500 438.157 360 C 461.458 296.043, 464.513 272.093, 448.933 275.515 C 438.144 277.884, 424.783 317.857, 419.509 363.548 C 417.932 377.209, 417.519 378.635, 399.699 432 L 381.500 486.500 377.839 488.216 C 369.049 492.336, 369.518 511.346, 378.366 509.577 C 386.348 507.980, 389.010 502.392, 407.466 448.500 C 412.551 433.650, 416.944 420.825, 417.228 420 C 417.512 419.175, 418.038 420.300, 418.398 422.500 C 423.543 453.977, 429.446 465, 441.159 465 C 454.715 465, 463.573 453.406, 485.500 406.959 L 497.500 381.540 498.164 404.020 C 499.077 434.886, 502.203 450.417, 510.179 463.700 C 525.567 489.326, 555.307 478.243, 566.535 442.698 C 572.676 423.261, 567.139 421.846, 555.975 440 C 538.997 467.607, 530.091 469.896, 522.157 448.690 C 511.961 421.438, 512.581 351.852, 523.246 326.500 C 538.393 290.495, 543.622 259.435, 534.250 261.136 C 533.837 261.211, 532.375 261.479, 531 261.732 M 245.265 268.384 C 221.851 285.620, 189.099 357.277, 189.008 391.466 L 189 394.432 194.587 388.966 C 235.907 348.543, 280.496 242.449, 245.265 268.384 M 334.314 277.326 C 297.133 291.024, 267.640 463.248, 297.104 494.611 C 307.968 506.175, 317.569 489.114, 332.900 431 C 333.988 426.875, 334.906 424.075, 334.939 424.778 C 336.255 452.497, 345.586 500.690, 351.247 509.004 C 357.967 518.872, 368.078 513.780, 366.520 501.313 C 365.860 496.032, 365.776 495.915, 362.960 496.359 C 359.684 496.875, 359.897 497.302, 357.543 485.500 C 354.531 470.401, 354.072 467.462, 352.076 450.500 C 346.597 403.949, 346.878 369.701, 353.067 329.729 C 359.928 285.412, 359.576 280.098, 349.956 282.666 C 346.429 283.608, 346 283.528, 346 281.934 C 346 277.587, 340.013 275.226, 334.314 277.326 M 331.829 287.752 C 304.675 316.782, 288.354 417.521, 301.518 474.848 C 303.498 483.472, 303.794 483.314, 307.783 471.500 C 319.862 435.727, 333.654 373.958, 336.542 342.696 C 338.170 325.083, 341.478 299.874, 342.998 293.500 C 344.364 287.773, 344.254 285.965, 342.577 286.609 C 341.762 286.922, 340.678 286.267, 340.042 285.078 C 338.380 281.973, 336.733 282.509, 331.829 287.752" stroke="none" fill="#fffcfc" fill-rule="evenodd"/><path d="" stroke="none" fill="#fcfcfc" fill-rule="evenodd"/></svg>