<svg version="1.1" id="Layer_1" xmlns="http://www.w3.org/2000/svg" xmlns:xlink="http://www.w3.org/1999/xlink" x="0px" y="0px"
	 width="100%" viewBox="0 0 851 450" enable-background="new 0 0 851 450" xml:space="preserve">
<path fill="#FFFFFF" opacity="1.000000" stroke="none" 
	d="
M501.000000,451.000000 
	C334.000000,451.000000 167.500000,451.000000 1.000000,451.000000 
	C1.000000,301.000000 1.000000,151.000000 1.000000,1.000000 
	C284.666656,1.000000 568.333313,1.000000 852.000000,1.000000 
	C852.000000,151.000000 852.000000,301.000000 852.000000,451.000000 
	C735.166687,451.000000 618.333313,451.000000 501.000000,451.000000 
M329.851715,172.496597 
	C329.852051,175.995682 329.818298,179.495178 329.859528,182.993790 
	C329.955139,191.107162 333.667389,194.830307 341.859558,194.845871 
	C363.020630,194.886078 384.181885,194.888748 405.342957,194.844879 
	C413.929382,194.827072 417.733276,190.943298 417.746094,182.225464 
	C417.779877,159.231506 417.783386,136.237427 417.743958,113.243484 
	C417.729553,104.832756 413.872406,101.009277 405.542816,101.002823 
	C384.548279,100.986557 363.553772,100.992729 342.559235,100.999542 
	C333.183411,101.002586 329.872467,104.236588 329.859863,113.512932 
	C329.833588,132.841187 329.851715,152.169510 329.851715,172.496597 
M276.500000,301.757629 
	C286.330475,301.757599 296.161133,301.798462 305.991333,301.744812 
	C314.097351,301.700531 317.842316,297.897491 317.850891,289.720215 
	C317.875092,266.560303 317.870331,243.400299 317.853729,220.240356 
	C317.847565,211.655853 314.260681,208.010376 305.813171,208.003326 
	C284.486023,207.985504 263.158875,207.986053 241.831741,208.003204 
	C233.649796,208.009796 230.014252,211.656616 230.005814,219.915771 
	C229.981979,243.242310 229.979263,266.568909 230.007629,289.895447 
	C230.017502,298.007660 233.765366,301.707977 242.009781,301.745056 
	C253.172974,301.795227 264.336578,301.757446 276.500000,301.757629 
M417.052002,214.846649 
	C415.104004,209.853821 411.376221,207.933289 406.116211,207.956879 
	C384.645355,208.053131 363.173859,207.983658 341.702576,208.003677 
	C333.407135,208.011414 329.881195,211.490829 329.866364,219.829208 
	C329.824890,243.131287 329.827209,266.433533 329.864899,289.735626 
	C329.878510,298.161438 333.537323,301.733032 342.134857,301.747070 
	C363.273193,301.781586 384.411652,301.782745 405.549988,301.746277 
	C413.853119,301.731934 417.726593,297.855347 417.742737,289.480621 
	C417.787323,266.345001 417.767731,243.209198 417.736176,220.073532 
	C417.734131,218.595917 417.413513,217.118744 417.052002,214.846649 
M529.242432,135.499985 
	C529.242676,151.327118 529.186768,167.154556 529.267090,182.981277 
	C529.306519,190.752457 533.269165,194.804550 540.934326,194.831650 
	C562.592163,194.908218 584.250793,194.915787 605.908569,194.822647 
	C613.204102,194.791260 617.104370,190.882324 617.124146,183.707275 
	C617.190002,159.883484 617.189758,136.059311 617.124878,112.235512 
	C617.104187,104.618752 613.365479,101.022942 605.657349,101.010101 
	C584.165833,100.974304 562.674255,100.977646 541.182678,101.008034 
	C533.152283,101.019394 529.329041,104.873436 529.255981,113.008553 
	C529.191650,120.171822 529.242615,127.336136 529.242432,135.499985 
M617.152710,277.498138 
	C617.152100,258.171661 617.185425,238.845062 617.134521,219.518707 
	C617.113525,211.546768 613.504333,208.017929 605.463989,208.007065 
	C583.804932,207.977814 562.145874,207.971130 540.486877,208.012329 
	C533.589966,208.025452 529.347595,211.825516 529.305847,218.663055 
	C529.158386,242.820267 529.164001,266.979431 529.311646,291.136658 
	C529.350952,297.562775 533.377197,301.657684 539.622253,301.696594 
	C562.113342,301.836700 584.606506,301.835663 607.097595,301.691132 
	C613.161316,301.652161 616.910889,297.582275 617.110535,291.491272 
	C617.252380,287.163971 617.147583,282.828644 617.152710,277.498138 
M435.914490,300.969208 
	C437.379913,301.231018 438.844849,301.717743 440.310822,301.720947 
	C462.470886,301.769440 484.631378,301.818970 506.791046,301.715057 
	C513.418884,301.683990 517.210571,297.680969 517.226501,290.959625 
	C517.283264,266.966827 517.281738,242.973694 517.229553,218.980865 
	C517.213501,211.598541 513.529480,208.020615 506.083252,208.009766 
	C484.423004,207.978180 462.762634,207.976151 441.102386,208.010666 
	C433.280304,208.023132 429.783783,211.472855 429.768036,219.292755 
	C429.720367,242.952377 429.798096,266.612335 429.708954,290.271729 
	C429.691742,294.840546 431.045135,298.417480 435.914490,300.969208 
M429.750549,121.508728 
	C429.750793,142.157028 429.723267,162.805389 429.766754,183.453598 
	C429.781403,190.403198 433.225159,194.697189 439.634186,194.753754 
	C462.112183,194.952164 484.594086,194.957138 507.072083,194.759735 
	C513.480591,194.703461 517.205383,190.524460 517.221802,184.185318 
	C517.284912,159.873734 517.291260,135.561752 517.212402,111.250275 
	C517.192871,105.232323 513.543579,101.116219 507.844482,101.079330 
	C485.032471,100.931686 462.218536,100.941574 439.406250,101.066414 
	C433.816284,101.097008 430.106293,104.983803 429.814545,110.525047 
	C429.639648,113.846565 429.761688,117.183716 429.750549,121.508728 
M275.500000,100.998863 
	C264.333740,100.998886 253.167435,100.978920 242.001236,101.005554 
	C233.750443,101.025238 230.022034,104.665215 230.010254,112.815735 
	C229.977722,135.314804 229.979614,157.813995 230.009552,180.313065 
	C230.020096,188.224152 233.759338,191.983322 241.591110,191.992401 
	C263.090210,192.017319 284.589447,192.018295 306.088562,191.992020 
	C314.003204,191.982346 317.828796,188.261108 317.842804,180.466492 
	C317.883575,157.800797 317.882874,135.134918 317.842804,112.469215 
	C317.829498,104.937721 313.971680,101.059151 306.498718,101.014130 
	C296.499481,100.953896 286.499603,100.998993 275.500000,100.998863 
z"/>
<path fill="#42A1A2" opacity="1.000000" stroke="none" 
	d="
M329.851654,171.997192 
	C329.851715,152.169510 329.833588,132.841187 329.859863,113.512932 
	C329.872467,104.236588 333.183411,101.002586 342.559235,100.999542 
	C363.553772,100.992729 384.548279,100.986557 405.542816,101.002823 
	C413.872406,101.009277 417.729553,104.832756 417.743958,113.243484 
	C417.783386,136.237427 417.779877,159.231506 417.746094,182.225464 
	C417.733276,190.943298 413.929382,194.827072 405.342957,194.844879 
	C384.181885,194.888748 363.020630,194.886078 341.859558,194.845871 
	C333.667389,194.830307 329.955139,191.107162 329.859528,182.993790 
	C329.818298,179.495178 329.852051,175.995682 329.851654,171.997192 
z"/>
<path fill="#42A1A2" opacity="1.000000" stroke="none" 
	d="
M276.000000,301.757507 
	C264.336578,301.757446 253.172974,301.795227 242.009781,301.745056 
	C233.765366,301.707977 230.017502,298.007660 230.007629,289.895447 
	C229.979263,266.568909 229.981979,243.242310 230.005814,219.915771 
	C230.014252,211.656616 233.649796,208.009796 241.831741,208.003204 
	C263.158875,207.986053 284.486023,207.985504 305.813171,208.003326 
	C314.260681,208.010376 317.847565,211.655853 317.853729,220.240356 
	C317.870331,243.400299 317.875092,266.560303 317.850891,289.720215 
	C317.842316,297.897491 314.097351,301.700531 305.991333,301.744812 
	C296.161133,301.798462 286.330475,301.757599 276.000000,301.757507 
z"/>
<path fill="#42A1A2" opacity="1.000000" stroke="none" 
	d="
M417.146545,215.244003 
	C417.413513,217.118744 417.734131,218.595917 417.736176,220.073532 
	C417.767731,243.209198 417.787323,266.345001 417.742737,289.480621 
	C417.726593,297.855347 413.853119,301.731934 405.549988,301.746277 
	C384.411652,301.782745 363.273193,301.781586 342.134857,301.747070 
	C333.537323,301.733032 329.878510,298.161438 329.864899,289.735626 
	C329.827209,266.433533 329.824890,243.131287 329.866364,219.829208 
	C329.881195,211.490829 333.407135,208.011414 341.702576,208.003677 
	C363.173859,207.983658 384.645355,208.053131 406.116211,207.956879 
	C411.376221,207.933289 415.104004,209.853821 417.146545,215.244003 
z"/>
<path fill="#42A1A2" opacity="1.000000" stroke="none" 
	d="
M529.242554,134.999985 
	C529.242615,127.336136 529.191650,120.171822 529.255981,113.008553 
	C529.329041,104.873436 533.152283,101.019394 541.182678,101.008034 
	C562.674255,100.977646 584.165833,100.974304 605.657349,101.010101 
	C613.365479,101.022942 617.104187,104.618752 617.124878,112.235512 
	C617.189758,136.059311 617.190002,159.883484 617.124146,183.707275 
	C617.104370,190.882324 613.204102,194.791260 605.908569,194.822647 
	C584.250793,194.915787 562.592163,194.908218 540.934326,194.831650 
	C533.269165,194.804550 529.306519,190.752457 529.267090,182.981277 
	C529.186768,167.154556 529.242676,151.327118 529.242554,134.999985 
z"/>
<path fill="#42A1A2" opacity="1.000000" stroke="none" 
	d="
M617.152771,277.997498 
	C617.147583,282.828644 617.252380,287.163971 617.110535,291.491272 
	C616.910889,297.582275 613.161316,301.652161 607.097595,301.691132 
	C584.606506,301.835663 562.113342,301.836700 539.622253,301.696594 
	C533.377197,301.657684 529.350952,297.562775 529.311646,291.136658 
	C529.164001,266.979431 529.158386,242.820267 529.305847,218.663055 
	C529.347595,211.825516 533.589966,208.025452 540.486877,208.012329 
	C562.145874,207.971130 583.804932,207.977814 605.463989,208.007065 
	C613.504333,208.017929 617.113525,211.546768 617.134521,219.518707 
	C617.185425,238.845062 617.152100,258.171661 617.152771,277.997498 
z"/>
<path fill="#42A0A1" opacity="1.000000" stroke="none" 
	d="
M435.538727,300.827942 
	C431.045135,298.417480 429.691742,294.840546 429.708954,290.271729 
	C429.798096,266.612335 429.720367,242.952377 429.768036,219.292755 
	C429.783783,211.472855 433.280304,208.023132 441.102386,208.010666 
	C462.762634,207.976151 484.423004,207.978180 506.083252,208.009766 
	C513.529480,208.020615 517.213501,211.598541 517.229553,218.980865 
	C517.281738,242.973694 517.283264,266.966827 517.226501,290.959625 
	C517.210571,297.680969 513.418884,301.683990 506.791046,301.715057 
	C484.631378,301.818970 462.470886,301.769440 440.310822,301.720947 
	C438.844849,301.717743 437.379913,301.231018 435.538727,300.827942 
z"/>
<path fill="#42A0A1" opacity="1.000000" stroke="none" 
	d="
M429.750427,121.011284 
	C429.761688,117.183716 429.639648,113.846565 429.814545,110.525047 
	C430.106293,104.983803 433.816284,101.097008 439.406250,101.066414 
	C462.218536,100.941574 485.032471,100.931686 507.844482,101.079330 
	C513.543579,101.116219 517.192871,105.232323 517.212402,111.250275 
	C517.291260,135.561752 517.284912,159.873734 517.221802,184.185318 
	C517.205383,190.524460 513.480591,194.703461 507.072083,194.759735 
	C484.594086,194.957138 462.112183,194.952164 439.634186,194.753754 
	C433.225159,194.697189 429.781403,190.403198 429.766754,183.453598 
	C429.723267,162.805389 429.750793,142.157028 429.750427,121.011284 
z"/>
<path fill="#42A0A1" opacity="1.000000" stroke="none" 
	d="
M276.000000,100.998863 
	C286.499603,100.998993 296.499481,100.953896 306.498718,101.014130 
	C313.971680,101.059151 317.829498,104.937721 317.842804,112.469215 
	C317.882874,135.134918 317.883575,157.800797 317.842804,180.466492 
	C317.828796,188.261108 314.003204,191.982346 306.088562,191.992020 
	C284.589447,192.018295 263.090210,192.017319 241.591110,191.992401 
	C233.759338,191.983322 230.020096,188.224152 230.009552,180.313065 
	C229.979614,157.813995 229.977722,135.314804 230.010254,112.815735 
	C230.022034,104.665215 233.750443,101.025238 242.001236,101.005554 
	C253.167435,100.978920 264.333740,100.998886 276.000000,100.998863 
z"/>
</svg>