<svg version="1.1" id="Layer_1" xmlns="http://www.w3.org/2000/svg" xmlns:xlink="http://www.w3.org/1999/xlink" x="0px" y="0px"
	 width="100%" viewBox="0 0 851 450" enable-background="new 0 0 851 450" xml:space="preserve">
<path fill="#FFFFFF" opacity="1.000000" stroke="none" 
	d="
M501.000000,451.000000 
	C334.000000,451.000000 167.500000,451.000000 1.000000,451.000000 
	C1.000000,301.000000 1.000000,151.000000 1.000000,1.000000 
	C284.666656,1.000000 568.333313,1.000000 852.000000,1.000000 
	C852.000000,151.000000 852.000000,301.000000 852.000000,451.000000 
	C735.166687,451.000000 618.333313,451.000000 501.000000,451.000000 
M332.851685,172.496597 
	C332.852020,175.995697 332.818268,179.495178 332.859497,182.993805 
	C332.955139,191.107117 336.667480,194.830322 344.859558,194.845886 
	C366.020630,194.886093 387.181885,194.888748 408.342957,194.844864 
	C416.929291,194.827072 420.733276,190.943253 420.746094,182.225479 
	C420.779907,159.231506 420.783417,136.237427 420.744019,113.243484 
	C420.729614,104.832779 416.872437,101.009254 408.542847,101.002800 
	C387.548309,100.986534 366.553772,100.992722 345.559235,100.999527 
	C336.183441,101.002571 332.872498,104.236526 332.859894,113.512909 
	C332.833618,132.841171 332.851715,152.169495 332.851685,172.496597 
M279.500000,301.757660 
	C289.330505,301.757629 299.161194,301.798462 308.991425,301.744843 
	C317.097290,301.700592 320.842407,297.897400 320.850952,289.720184 
	C320.875153,266.560242 320.870361,243.400253 320.853729,220.240311 
	C320.847595,211.655823 317.260712,208.010361 308.813171,208.003311 
	C287.486023,207.985519 266.158844,207.986023 244.831696,208.003189 
	C236.649780,208.009766 233.014221,211.656616 233.005783,219.915756 
	C232.981949,243.242310 232.979248,266.568939 233.007599,289.895477 
	C233.017471,298.007629 236.765396,301.708008 245.009766,301.745056 
	C256.172943,301.795258 267.336578,301.757477 279.500000,301.757660 
M420.052979,214.846512 
	C418.101593,209.857803 414.377136,207.932724 409.115570,207.956467 
	C387.644073,208.053421 366.171936,207.983688 344.700012,208.003540 
	C336.396698,208.011215 332.883759,211.478897 332.869019,219.827118 
	C332.827820,243.129883 332.830322,266.432800 332.867340,289.735596 
	C332.880737,298.164062 336.537292,301.739899 345.131287,301.754272 
	C366.270233,301.789612 387.409332,301.790436 408.548279,301.753571 
	C416.838593,301.739105 420.732544,297.837982 420.748016,289.481506 
	C420.790802,266.345215 420.772461,243.208740 420.740814,220.072388 
	C420.738800,218.594955 420.417023,217.117935 420.052979,214.846512 
M532.234985,135.499985 
	C532.235229,151.327408 532.180420,167.155090 532.259155,182.982117 
	C532.297791,190.736572 536.280212,194.809082 543.932983,194.835938 
	C565.591248,194.911972 587.250183,194.919281 608.908386,194.827087 
	C616.193909,194.796082 620.100037,190.878510 620.119751,183.705215 
	C620.185242,159.880981 620.184570,136.056381 620.121033,112.232147 
	C620.100708,104.611839 616.372009,101.023094 608.654968,101.010124 
	C587.163086,100.973999 565.671082,100.977753 544.179138,101.007858 
	C536.147217,101.019112 532.322144,104.872971 532.248657,113.008163 
	C532.184021,120.171562 532.235168,127.336006 532.234985,135.499985 
M620.152710,277.498138 
	C620.152100,258.171631 620.185425,238.845047 620.134521,219.518692 
	C620.113525,211.546768 616.504333,208.017929 608.463989,208.007065 
	C586.804932,207.977829 565.145874,207.971130 543.486877,208.012329 
	C536.589966,208.025436 532.347595,211.825546 532.305847,218.663071 
	C532.158386,242.820267 532.164001,266.979431 532.311707,291.136658 
	C532.351013,297.563019 536.377014,301.657684 542.622253,301.696594 
	C565.113342,301.836700 587.606506,301.835693 610.097595,301.691132 
	C616.161316,301.652191 619.910828,297.582275 620.110474,291.491272 
	C620.252319,287.163971 620.147583,282.828644 620.152710,277.498138 
M438.914520,300.969238 
	C440.379974,301.231049 441.844910,301.717743 443.310913,301.720947 
	C465.470978,301.769501 487.631500,301.818970 509.791168,301.715088 
	C516.418884,301.684021 520.210571,297.681000 520.226501,290.959595 
	C520.283264,266.966766 520.281738,242.973648 520.229492,218.980804 
	C520.213440,211.598602 516.529358,208.020599 509.083221,208.009750 
	C487.422974,207.978165 465.762604,207.976151 444.102356,208.010635 
	C436.280304,208.023102 432.783752,211.472885 432.768005,219.292770 
	C432.720367,242.952408 432.798096,266.612366 432.708984,290.271759 
	C432.691772,294.840576 434.045105,298.417511 438.914520,300.969238 
M432.750519,121.508728 
	C432.750763,142.157074 432.723236,162.805466 432.766754,183.453720 
	C432.781403,190.403275 436.225220,194.697220 442.634277,194.753784 
	C465.112274,194.952179 487.594177,194.957184 510.072174,194.759766 
	C516.480896,194.703491 520.205444,190.524673 520.221863,184.185272 
	C520.284973,159.873688 520.291321,135.561707 520.212402,111.250221 
	C520.192871,105.232246 516.543640,101.116196 510.844452,101.079315 
	C488.032440,100.931671 465.218536,100.941582 442.406250,101.066414 
	C436.816284,101.097008 433.106323,104.983734 432.814484,110.525047 
	C432.639587,113.846558 432.761688,117.183716 432.750519,121.508728 
M278.500000,100.998848 
	C267.333771,100.998871 256.167450,100.978897 245.001282,101.005539 
	C236.750443,101.025223 233.022003,104.665192 233.010223,112.815666 
	C232.977692,135.314758 232.979568,157.813950 233.009521,180.313034 
	C233.020065,188.224136 236.759277,191.983322 244.591064,191.992401 
	C266.090179,192.017334 287.589417,192.018326 309.088562,191.992035 
	C317.003174,191.982361 320.828766,188.261093 320.842804,180.466522 
	C320.883606,157.800812 320.882904,135.134933 320.842834,112.469208 
	C320.829529,104.937767 316.971649,101.059113 309.498749,101.014107 
	C299.499512,100.953880 289.499603,100.998978 278.500000,100.998848 
z"/>
<path fill="#42A1A2" opacity="1.000000" stroke="none" 
	d="
M332.851624,171.997192 
	C332.851715,152.169495 332.833618,132.841171 332.859894,113.512909 
	C332.872498,104.236526 336.183441,101.002571 345.559235,100.999527 
	C366.553772,100.992722 387.548309,100.986534 408.542847,101.002800 
	C416.872437,101.009254 420.729614,104.832779 420.744019,113.243484 
	C420.783417,136.237427 420.779907,159.231506 420.746094,182.225479 
	C420.733276,190.943253 416.929291,194.827072 408.342957,194.844864 
	C387.181885,194.888748 366.020630,194.886093 344.859558,194.845886 
	C336.667480,194.830322 332.955139,191.107117 332.859497,182.993805 
	C332.818268,179.495178 332.852020,175.995697 332.851624,171.997192 
z"/>
<path fill="#42A1A2" opacity="1.000000" stroke="none" 
	d="
M279.000000,301.757538 
	C267.336578,301.757477 256.172943,301.795258 245.009766,301.745056 
	C236.765396,301.708008 233.017471,298.007629 233.007599,289.895477 
	C232.979248,266.568939 232.981949,243.242310 233.005783,219.915756 
	C233.014221,211.656616 236.649780,208.009766 244.831696,208.003189 
	C266.158844,207.986023 287.486023,207.985519 308.813171,208.003311 
	C317.260712,208.010361 320.847595,211.655823 320.853729,220.240311 
	C320.870361,243.400253 320.875153,266.560242 320.850952,289.720184 
	C320.842407,297.897400 317.097290,301.700592 308.991425,301.744843 
	C299.161194,301.798462 289.330505,301.757629 279.000000,301.757538 
z"/>
<path fill="#65E862" opacity="1.000000" stroke="none" 
	d="
M420.148499,215.243622 
	C420.417023,217.117935 420.738800,218.594955 420.740814,220.072388 
	C420.772461,243.208740 420.790802,266.345215 420.748016,289.481506 
	C420.732544,297.837982 416.838593,301.739105 408.548279,301.753571 
	C387.409332,301.790436 366.270233,301.789612 345.131287,301.754272 
	C336.537292,301.739899 332.880737,298.164062 332.867340,289.735596 
	C332.830322,266.432800 332.827820,243.129883 332.869019,219.827118 
	C332.883759,211.478897 336.396698,208.011215 344.700012,208.003540 
	C366.171936,207.983688 387.644073,208.053421 409.115570,207.956467 
	C414.377136,207.932724 418.101593,209.857803 420.148499,215.243622 
z"/>
<path fill="#65E862" opacity="1.000000" stroke="none" 
	d="
M532.235107,134.999985 
	C532.235168,127.336006 532.184021,120.171562 532.248657,113.008163 
	C532.322144,104.872971 536.147217,101.019112 544.179138,101.007858 
	C565.671082,100.977753 587.163086,100.973999 608.654968,101.010124 
	C616.372009,101.023094 620.100708,104.611839 620.121033,112.232147 
	C620.184570,136.056381 620.185242,159.880981 620.119751,183.705215 
	C620.100037,190.878510 616.193909,194.796082 608.908386,194.827087 
	C587.250183,194.919281 565.591248,194.911972 543.932983,194.835938 
	C536.280212,194.809082 532.297791,190.736572 532.259155,182.982117 
	C532.180420,167.155090 532.235229,151.327408 532.235107,134.999985 
z"/>
<path fill="#42A1A2" opacity="1.000000" stroke="none" 
	d="
M620.152771,277.997498 
	C620.147583,282.828644 620.252319,287.163971 620.110474,291.491272 
	C619.910828,297.582275 616.161316,301.652191 610.097595,301.691132 
	C587.606506,301.835693 565.113342,301.836700 542.622253,301.696594 
	C536.377014,301.657684 532.351013,297.563019 532.311707,291.136658 
	C532.164001,266.979431 532.158386,242.820267 532.305847,218.663071 
	C532.347595,211.825546 536.589966,208.025436 543.486877,208.012329 
	C565.145874,207.971130 586.804932,207.977829 608.463989,208.007065 
	C616.504333,208.017929 620.113525,211.546768 620.134521,219.518692 
	C620.185425,238.845047 620.152100,258.171631 620.152771,277.997498 
z"/>
<path fill="#42A0A1" opacity="1.000000" stroke="none" 
	d="
M438.538727,300.827942 
	C434.045105,298.417511 432.691772,294.840576 432.708984,290.271759 
	C432.798096,266.612366 432.720367,242.952408 432.768005,219.292770 
	C432.783752,211.472885 436.280304,208.023102 444.102356,208.010635 
	C465.762604,207.976151 487.422974,207.978165 509.083221,208.009750 
	C516.529358,208.020599 520.213440,211.598602 520.229492,218.980804 
	C520.281738,242.973648 520.283264,266.966766 520.226501,290.959595 
	C520.210571,297.681000 516.418884,301.684021 509.791168,301.715088 
	C487.631500,301.818970 465.470978,301.769501 443.310913,301.720947 
	C441.844910,301.717743 440.379974,301.231049 438.538727,300.827942 
z"/>
<path fill="#42A0A1" opacity="1.000000" stroke="none" 
	d="
M432.750397,121.011284 
	C432.761688,117.183716 432.639587,113.846558 432.814484,110.525047 
	C433.106323,104.983734 436.816284,101.097008 442.406250,101.066414 
	C465.218536,100.941582 488.032440,100.931671 510.844452,101.079315 
	C516.543640,101.116196 520.192871,105.232246 520.212402,111.250221 
	C520.291321,135.561707 520.284973,159.873688 520.221863,184.185272 
	C520.205444,190.524673 516.480896,194.703491 510.072174,194.759766 
	C487.594177,194.957184 465.112274,194.952179 442.634277,194.753784 
	C436.225220,194.697220 432.781403,190.403275 432.766754,183.453720 
	C432.723236,162.805466 432.750763,142.157074 432.750397,121.011284 
z"/>
<path fill="#42A0A1" opacity="1.000000" stroke="none" 
	d="
M279.000000,100.998840 
	C289.499603,100.998978 299.499512,100.953880 309.498749,101.014107 
	C316.971649,101.059113 320.829529,104.937767 320.842834,112.469208 
	C320.882904,135.134933 320.883606,157.800812 320.842804,180.466522 
	C320.828766,188.261093 317.003174,191.982361 309.088562,191.992035 
	C287.589417,192.018326 266.090179,192.017334 244.591064,191.992401 
	C236.759277,191.983322 233.020065,188.224136 233.009521,180.313034 
	C232.979568,157.813950 232.977692,135.314758 233.010223,112.815666 
	C233.022003,104.665192 236.750443,101.025223 245.001282,101.005539 
	C256.167450,100.978897 267.333771,100.998871 279.000000,100.998840 
z"/>
</svg>